<svg xmlns="http://www.w3.org/2000/svg" xmlns:xlink="http://www.w3.org/1999/xlink" width="182" height="182" viewBox="0 0 182 182">
  <defs>
    <linearGradient id="linear-gradient" x1="0.039" y1="0.042" x2="1.079" y2="1" gradientUnits="objectBoundingBox">
      <stop offset="0" stop-color="#03c573"/>
      <stop offset="1" stop-color="#009253"/>
    </linearGradient>
    <clipPath id="clip-path">
      <path id="Path_61314" data-name="Path 61314" d="M30.669,0a30.67,30.67,0,0,1,3.036,61.19c-.915.094-1.969.148-3.036.148A30.669,30.669,0,0,1,30.669,0Z" fill="#fff"/>
    </clipPath>
  </defs>
  <g id="Group_45041" data-name="Group 45041" transform="translate(-592 -187)">
    <g id="Rectangle_18130" data-name="Rectangle 18130" transform="translate(592 187)" fill="#fff" stroke="#707070" stroke-width="1" opacity="0">
      <rect width="182" height="182" stroke="none"/>
      <rect x="0.5" y="0.5" width="181" height="181" fill="none"/>
    </g>
    <g id="Group_42425" data-name="Group 42425">
      <g id="Group_30638" data-name="Group 30638" transform="translate(601 296.316)">
        <path id="Path_61316" data-name="Path 61316" d="M9.055-23.838H7.765l-3.4-5.226a2.317,2.317,0,0,1-.213-.412h-.03a7.321,7.321,0,0,1,.04.977v4.661H3.025v-7.111H4.4l3.283,5.1q.208.317.268.436h.02a6.318,6.318,0,0,1-.05-.957v-4.582H9.055Zm5.752,0H10.815v-7.111h3.833v1H12v2.013H14.44v1H12v2.1h2.812Zm-3.119-8.524H10.9l-1.2-1.22H10.8Zm-.387.754,1.1-1.24h.9l1.1,1.24h-.754l-.769-.709-.788.709Zm10.8,7.77H20.812l-3.4-5.226a2.318,2.318,0,0,1-.213-.412h-.03a7.321,7.321,0,0,1,.04.977v4.661H16.071v-7.111h1.374l3.283,5.1q.208.317.268.436h.02a6.318,6.318,0,0,1-.05-.957v-4.582H22.1Zm9.114-6.109H29.172v6.109h-1.18v-6.109H25.954v-1h5.261ZM38.1-23.838H36.8l-.64-1.81h-2.8l-.615,1.81H31.463l2.663-7.111h1.329ZM35.852-26.61l-.987-2.836a3.359,3.359,0,0,1-.094-.446h-.02a2.9,2.9,0,0,1-.1.446l-.977,2.836Zm-1.671-6.749a4.147,4.147,0,0,1,.421-.02,1.3,1.3,0,0,1,.766.211.655.655,0,0,1,.3.563.7.7,0,0,1-.2.5.78.78,0,0,1-.488.24v.248h-.6v-.59q.57,0,.57-.352,0-.293-.441-.293a1.956,1.956,0,0,0-.327.045ZM45.1-23.838H43.815l-3.4-5.226a2.318,2.318,0,0,1-.213-.412h-.03a7.321,7.321,0,0,1,.04.977v4.661H39.075v-7.111h1.374l3.283,5.1q.208.317.268.436h.02a6.318,6.318,0,0,1-.05-.957v-4.582H45.1Zm7.309-.486a5.088,5.088,0,0,1-2.474.6,3.444,3.444,0,0,1-2.554-.982,3.522,3.522,0,0,1-.977-2.6,3.651,3.651,0,0,1,1.069-2.71,3.7,3.7,0,0,1,2.715-1.059,5.056,5.056,0,0,1,1.993.347v1.215a3.431,3.431,0,0,0-1.949-.545,2.481,2.481,0,0,0-1.862.749,2.668,2.668,0,0,0-.726,1.939,2.794,2.794,0,0,0,.625,1.926,2.156,2.156,0,0,0,1.7.7,2.684,2.684,0,0,0,1.269-.283v-1.691h-1.5V-27.7h2.673Zm7.255.6a3.56,3.56,0,0,1-1.393-.263,3.057,3.057,0,0,1-1.066-.736,3.326,3.326,0,0,1-.684-1.133,4.189,4.189,0,0,1-.243-1.458,4.617,4.617,0,0,1,.245-1.547,3.382,3.382,0,0,1,.7-1.185,3.077,3.077,0,0,1,1.1-.759,3.78,3.78,0,0,1,1.453-.268,3.422,3.422,0,0,1,1.359.263,3.029,3.029,0,0,1,1.051.736,3.336,3.336,0,0,1,.677,1.133,4.213,4.213,0,0,1,.241,1.453,4.494,4.494,0,0,1-.352,1.842,3.167,3.167,0,0,1-.992,1.272l2.063,1.488h-1.8l-1.269-.987a4.348,4.348,0,0,1-.526.109A3.96,3.96,0,0,1,59.668-23.719Zm.055-6.312a2.057,2.057,0,0,0-.89.191,2.03,2.03,0,0,0-.7.541,2.524,2.524,0,0,0-.454.836,3.421,3.421,0,0,0-.161,1.081,3.5,3.5,0,0,0,.156,1.076,2.5,2.5,0,0,0,.439.831,1.98,1.98,0,0,0,.679.536,2,2,0,0,0,.878.191,2.26,2.26,0,0,0,.917-.179,1.9,1.9,0,0,0,.692-.513,2.333,2.333,0,0,0,.439-.821,3.663,3.663,0,0,0,.154-1.106,3.937,3.937,0,0,0-.149-1.131,2.387,2.387,0,0,0-.426-.836,1.826,1.826,0,0,0-.677-.518A2.182,2.182,0,0,0,59.723-30.031Zm10.16,3.317q0,3-2.836,3-2.717,0-2.717-2.881v-4.349h1.18v4.106q0,2.093,1.626,2.093,1.567,0,1.567-2.018v-4.18h1.18ZM77.4-23.838H76.1l-.64-1.81h-2.8l-.615,1.81H70.761l2.663-7.111h1.329ZM75.15-26.61l-.987-2.836a3.359,3.359,0,0,1-.094-.446h-.02a2.9,2.9,0,0,1-.1.446l-.977,2.836Zm-1.671-6.749a4.147,4.147,0,0,1,.421-.02,1.3,1.3,0,0,1,.766.211.655.655,0,0,1,.3.563.7.7,0,0,1-.2.5.78.78,0,0,1-.488.24v.248h-.6v-.59q.57,0,.57-.352,0-.293-.441-.293a1.956,1.956,0,0,0-.327.045ZM84.4-23.838H83.113l-3.4-5.226a2.318,2.318,0,0,1-.213-.412h-.03a7.322,7.322,0,0,1,.04.977v4.661H78.373v-7.111h1.374l3.283,5.1q.208.317.268.436h.02a6.319,6.319,0,0,1-.05-.957v-4.582H84.4Zm8.489,0H88.955v-7.111h1.18v6.114h2.757Zm5.4-7.111-2.331,4.527v2.583h-1.18V-26.4L92.51-30.948h1.344l1.4,3.05q.025.055.149.412h.015a2.814,2.814,0,0,1,.164-.412l1.463-3.05Zm-1.329-2.281L95.545-31.6h-.853l1.2-1.626Zm9.59,3.283H104.51v6.109h-1.18v-6.109h-2.038v-1h5.261Zm6.536,6.109H111.71l-1.136-1.9a3.976,3.976,0,0,0-.3-.449,1.806,1.806,0,0,0-.3-.3,1,1,0,0,0-.33-.174,1.373,1.373,0,0,0-.4-.055h-.476v2.886h-1.175v-7.111h2.341a3.386,3.386,0,0,1,.922.119,2.144,2.144,0,0,1,.734.36,1.677,1.677,0,0,1,.488.6,1.89,1.89,0,0,1,.176.841,2.058,2.058,0,0,1-.112.692,1.8,1.8,0,0,1-.317.56,1.941,1.941,0,0,1-.5.419,2.478,2.478,0,0,1-.652.268v.02a1.831,1.831,0,0,1,.337.24q.144.131.273.27a3.241,3.241,0,0,1,.255.315q.126.176.28.409Zm-4.319-6.154v2.311h.982a1.455,1.455,0,0,0,.5-.084,1.152,1.152,0,0,0,.4-.243,1.1,1.1,0,0,0,.263-.387,1.327,1.327,0,0,0,.094-.511,1.015,1.015,0,0,0-.322-.8,1.349,1.349,0,0,0-.927-.288ZM119.386-26.8q0,3.084-2.846,3.084-2.712,0-2.712-2.99v-4.24h1.18v4.22q0,1.979,1.621,1.979,1.577,0,1.577-1.909v-4.289h1.071a.72.72,0,0,0,.5-.176.542.542,0,0,0,.2-.419,2.1,2.1,0,0,0-.094-.655h.8a2.222,2.222,0,0,1,.089.674q0,1.081-1.379,1.24Zm6.942-3.759a2.012,2.012,0,0,0,.4.05q1.012,0,1.012-.65a1.717,1.717,0,0,0-.1-.6h.8a1.844,1.844,0,0,1,.1.664,1.183,1.183,0,0,1-.347.885,1.3,1.3,0,0,1-.952.34h-.169a3.731,3.731,0,0,1,.754,2.39,3.885,3.885,0,0,1-.94,2.752,3.27,3.27,0,0,1-2.517,1.012,3.184,3.184,0,0,1-2.455-1,3.667,3.667,0,0,1-.922-2.593,3.885,3.885,0,0,1,.94-2.737,3.3,3.3,0,0,1,2.556-1.021A3.317,3.317,0,0,1,126.329-30.562Zm-1.9.531a1.974,1.974,0,0,0-1.592.731,2.894,2.894,0,0,0-.61,1.917,2.911,2.911,0,0,0,.6,1.909,1.908,1.908,0,0,0,1.547.724,2.029,2.029,0,0,0,1.624-.689,2.867,2.867,0,0,0,.593-1.929,3.006,3.006,0,0,0-.575-1.969A1.943,1.943,0,0,0,124.429-30.031Zm1.017-1.507h-.858l-1.3-1.626h1.061Zm9.843,7.7H134l-3.4-5.226a2.318,2.318,0,0,1-.213-.412h-.03a7.318,7.318,0,0,1,.04.977v4.661h-1.141v-7.111h1.374l3.283,5.1q.208.317.268.436h.02a6.32,6.32,0,0,1-.05-.957v-4.582h1.136Zm7.309-.486a5.088,5.088,0,0,1-2.474.6,3.444,3.444,0,0,1-2.554-.982,3.522,3.522,0,0,1-.977-2.6,3.651,3.651,0,0,1,1.069-2.71,3.7,3.7,0,0,1,2.715-1.059,5.056,5.056,0,0,1,1.993.347v1.215a3.431,3.431,0,0,0-1.949-.545,2.481,2.481,0,0,0-1.862.749,2.668,2.668,0,0,0-.726,1.939,2.794,2.794,0,0,0,.625,1.926,2.156,2.156,0,0,0,1.7.7,2.684,2.684,0,0,0,1.269-.283v-1.691h-1.5V-27.7H142.6Zm10.036.486H151.45v-3.084H148.1v3.084h-1.18v-7.111h1.18v2.99h3.347v-2.99h1.185Zm4.686.119a3.2,3.2,0,0,1-2.462-1,3.661,3.661,0,0,1-.925-2.593,3.879,3.879,0,0,1,.942-2.737,3.31,3.31,0,0,1,2.559-1.021,3.127,3.127,0,0,1,2.412.992,3.674,3.674,0,0,1,.915,2.593,3.891,3.891,0,0,1-.937,2.752A3.25,3.25,0,0,1,157.321-23.719Zm.055-6.312a1.978,1.978,0,0,0-1.589.729,2.884,2.884,0,0,0-.612,1.919,2.911,2.911,0,0,0,.6,1.909,1.919,1.919,0,0,0,1.557.724,2.01,2.01,0,0,0,1.612-.689,2.876,2.876,0,0,0,.59-1.929,3.015,3.015,0,0,0-.573-1.969A1.936,1.936,0,0,0,157.375-30.031Zm-.05,7.919a.614.614,0,0,1-.434-.169.536.536,0,0,1-.181-.407.507.507,0,0,1,.186-.4.636.636,0,0,1,.429-.161.621.621,0,0,1,.431.161.516.516,0,0,1,.179.4.539.539,0,0,1-.179.407A.606.606,0,0,1,157.326-22.112Zm9.7-2.023a4.311,4.311,0,0,1-2,.417,3.268,3.268,0,0,1-2.479-.977,3.559,3.559,0,0,1-.932-2.564,3.733,3.733,0,0,1,1.049-2.757,3.588,3.588,0,0,1,2.65-1.051,4.344,4.344,0,0,1,1.711.293v1.17a3.053,3.053,0,0,0-1.587-.426,2.49,2.49,0,0,0-1.872.739,2.714,2.714,0,0,0-.717,1.974,2.588,2.588,0,0,0,.669,1.872,2.33,2.33,0,0,0,1.76.7,3.152,3.152,0,0,0,1.745-.476Z" transform="translate(-3.025 63.104)" fill="#3b3b3b"/>
        <path id="Path_61315" data-name="Path 61315" d="M11.965-51.64H7.4V-72.817h6.568l5.361,16.229,5.39-16.229h6.509V-51.64H26.84L27.193-68.1,21.8-51.64H17.061L11.494-68.252ZM35.587-72.817h4.654V-51.64H35.587Zm15.316,0H62.6v3.8H51.61q-3.476,0-3.476,2.769a1.9,1.9,0,0,0,.8,1.708,3.246,3.246,0,0,0,2.032.589h5.861a17.469,17.469,0,0,1,3.034.236,5.6,5.6,0,0,1,2.489,1.429q1.281,1.163,1.281,4.315A8.738,8.738,0,0,1,63.5-56.4a8.789,8.789,0,0,1-.53,1.694,4.132,4.132,0,0,1-1.355,1.708,5.724,5.724,0,0,1-2.283,1.031,12.373,12.373,0,0,1-3.122.324H44.365v-3.8H55.5a5.437,5.437,0,0,0,2.548-.486,1.9,1.9,0,0,0,.9-1.841v-.442a2.236,2.236,0,0,0-.472-1.325,2.578,2.578,0,0,0-1.136-.589,6.807,6.807,0,0,0-1.52-.147H50.563a8.457,8.457,0,0,1-5.238-1.414q-1.844-1.414-1.844-4.742a7.659,7.659,0,0,1,.56-3,4.8,4.8,0,0,1,1.532-2.047,5.979,5.979,0,0,1,2.239-1.016A11.811,11.811,0,0,1,50.9-72.817ZM68.812-51.64H64.1l8.9-21.177h4.713L86.749-51.64H81.8l-1.944-5.066H70.638Zm3.269-8.807h6.333l-3.21-8.1Zm38.231,4a5.025,5.025,0,0,0,1.09-2.022,15.58,15.58,0,0,0,.4-1.874,13.707,13.707,0,0,0,.1-1.8,13.283,13.283,0,0,0-.427-3.394,6.045,6.045,0,0,0-1.134-2.435,4.36,4.36,0,0,0-1.856-1.225,6.828,6.828,0,0,0-2.327-.413,6.828,6.828,0,0,0-2.327.413,4.3,4.3,0,0,0-1.856,1.24,6,6,0,0,0-1.119,2.331,13.232,13.232,0,0,0-.412,3.482,12.793,12.793,0,0,0,.4,3.35,5.871,5.871,0,0,0,1.134,2.317,4.19,4.19,0,0,0,1.856,1.24,5.655,5.655,0,0,0,2.327.472,6.344,6.344,0,0,0,2.312-.428A4.691,4.691,0,0,0,110.312-56.444Zm7.776,4.8h-5.361l-.677-.736-1.944.707-1.8.353a13.451,13.451,0,0,1-1.885.118h-1a11.293,11.293,0,0,1-4.713-.9,6.817,6.817,0,0,1-2.872-2.2,10.751,10.751,0,0,1-1.237-2.2,12.594,12.594,0,0,1-.471-1.46q-.133-.56-.309-1.445a19.48,19.48,0,0,1-.236-2.89,16.52,16.52,0,0,1,.25-2.964,13.627,13.627,0,0,1,.839-2.787,7.718,7.718,0,0,1,1.443-2.33,8.065,8.065,0,0,1,2.666-1.9,12.14,12.14,0,0,1,5.287-.929,19.359,19.359,0,0,1,3,.236,10.382,10.382,0,0,1,2.842.869,7.233,7.233,0,0,1,2.327,1.738A10.056,10.056,0,0,1,116-67.265a14.207,14.207,0,0,1,.766,5.051,18.382,18.382,0,0,1-.162,2.386,17.756,17.756,0,0,1-.457,2.327,11.324,11.324,0,0,1-1.267,2.71Zm15.7-3.505v3.505h-6.362a18.149,18.149,0,0,1-2.194-.118,7.332,7.332,0,0,1-2.076-.619,6.3,6.3,0,0,1-1.973-1.384,5.75,5.75,0,0,1-1.252-1.9,9.089,9.089,0,0,1-.545-2.165,18.753,18.753,0,0,1-.147-2.386V-72.817h4.418v12.945a14.493,14.493,0,0,0,.1,1.487,3.838,3.838,0,0,0,.6,1.708,2.7,2.7,0,0,0,1.473,1.149,7.728,7.728,0,0,0,2.651.383Zm11.575,3.505h-4.624V-69.076h-6.774v-3.682H152.2v3.682h-6.833Zm9.013,0V-72.817h4.448v8.571h8.159v-8.571H171.4V-51.64h-4.418v-8.866h-8.159v8.866Z" transform="translate(-7.4 73.2)" fill="#3b3b3b"/>
      </g>
      <g id="Group_30635" data-name="Group 30635" transform="translate(652 218.842)">
        <path id="Path_61313" data-name="Path 61313" d="M30.638,0a30.639,30.639,0,0,1,3.033,61.128c-.914.094-1.967.148-3.033.148A30.638,30.638,0,0,1,30.638,0Z" transform="translate(0 0)" fill="url(#linear-gradient)"/>
        <g id="Mask_Group_10" data-name="Mask Group 10" transform="translate(0 0)" clip-path="url(#clip-path)">
          <path id="Path_61276" data-name="Path 61276" d="M334.959,181.75c18.9-11.271,17.4-36.3,8.785-40.443-5.787-2.783-6.792-8.255-6.827-11.551a1.467,1.467,0,0,0-2.245-1.236c-21.821,13.76-13.436,27.383-7.834,36.987,5.8,9.945,0,13.26,0,13.26" transform="translate(-304.524 -118.479)" fill="#fff"/>
        </g>
        <path id="Path_61277" data-name="Path 61277" d="M338.9,199.806a24.648,24.648,0,0,0,5.055-15.829,23.734,23.734,0,0,0-2.931-10.277c-.008-.014-.014-.026-.021-.041a6.661,6.661,0,0,1-.571-3.564,6.546,6.546,0,0,1,1-2.752.663.663,0,0,1,1.215.265l0,.021a7.482,7.482,0,0,0,2.611,4.176c.251.239,4.7,4.532,5.573,8.649.277,1.31.226,2.768-1.16,6.589-1.232,3.4-4.252,7.772-8.088,13.272" transform="translate(-314.297 -139.021)" fill="#01a15c"/>
      </g>
    </g>
  </g>
</svg>
