<svg xmlns="http://www.w3.org/2000/svg" xmlns:xlink="http://www.w3.org/1999/xlink" width="688" height="336" viewBox="0 0 688 336">
  <defs>
    <clipPath id="clip-path">
      <rect id="Rectangle_21921" data-name="Rectangle 21921" width="688" height="336" transform="translate(152 224)" fill="#fff" stroke="#707070" stroke-width="1" opacity="0.33"/>
    </clipPath>
    <clipPath id="clip-path-2">
      <rect id="Rectangle_21892" data-name="Rectangle 21892" width="129" height="92" transform="translate(-0.186 0)" fill="#fff" stroke="#707070" stroke-width="1" opacity="0.31"/>
    </clipPath>
    <clipPath id="clip-path-3">
      <rect id="Rectangle_21894" data-name="Rectangle 21894" width="128.814" height="91.875" transform="translate(0 0)" fill="#fff" stroke="#707070" stroke-width="1" opacity="0.31"/>
    </clipPath>
    <clipPath id="clip-path-4">
      <rect id="Rectangle_21896" data-name="Rectangle 21896" width="128" height="90" transform="translate(0.398 -0.473)" fill="#fff" stroke="#707070" stroke-width="1" opacity="0.31"/>
    </clipPath>
  </defs>
  <g id="ic-_QTTB" data-name="ic- QTTB" transform="translate(-152 -224)" clip-path="url(#clip-path)">
    <g id="Group_46453" data-name="Group 46453" transform="translate(2 2)">
      <path id="Path_96474" data-name="Path 96474" d="M-43.872,0l-2.484-7.154H-46.4q.1,1.594.1,2.988V0h-1.271V-8.566H-45.6l2.379,6.814h.035l2.449-6.814h1.98V0H-40.1V-4.236q0-.639.032-1.664t.056-1.242h-.047L-42.636,0Zm11.795,0-.193-.85h-.07a1.954,1.954,0,0,1-.817.709,2.733,2.733,0,0,1-1.21.258,2.375,2.375,0,0,1-1.758-.586,2.429,2.429,0,0,1-.58-1.775V-6.48h1.389v4a1.734,1.734,0,0,0,.3,1.116A1.163,1.163,0,0,0-34.058-1a1.521,1.521,0,0,0,1.274-.519,2.857,2.857,0,0,0,.407-1.737V-6.48h1.383V0Zm7.1,0-.275-.9H-25.3a2.655,2.655,0,0,1-.943.806A2.983,2.983,0,0,1-27.46.117,2.063,2.063,0,0,1-28.951-.4a1.929,1.929,0,0,1-.536-1.459,1.713,1.713,0,0,1,.744-1.512,4.291,4.291,0,0,1,2.268-.557l1.119-.035v-.346a1.31,1.31,0,0,0-.29-.929,1.183,1.183,0,0,0-.9-.308A3.11,3.11,0,0,0-27.5-5.4a7.207,7.207,0,0,0-.879.346l-.445-.984a4.793,4.793,0,0,1,1.154-.419A5.312,5.312,0,0,1-26.487-6.6a2.8,2.8,0,0,1,1.866.539,2.111,2.111,0,0,1,.63,1.693V0Zm-2.051-.937a1.706,1.706,0,0,0,1.2-.419,1.519,1.519,0,0,0,.454-1.175v-.562l-.832.035a2.847,2.847,0,0,0-1.415.325.988.988,0,0,0-.442.888.866.866,0,0,0,.258.671A1.108,1.108,0,0,0-27.026-.937ZM-14.6-1.846A1.7,1.7,0,0,1-15.29-.39a3.311,3.311,0,0,1-1.98.507,4.678,4.678,0,0,1-2.08-.393V-1.465a5.107,5.107,0,0,0,2.127.527q1.271,0,1.271-.768a.608.608,0,0,0-.141-.41,1.664,1.664,0,0,0-.463-.34,7.966,7.966,0,0,0-.9-.4,4.147,4.147,0,0,1-1.515-.867,1.6,1.6,0,0,1-.4-1.125,1.478,1.478,0,0,1,.671-1.292,3.184,3.184,0,0,1,1.825-.46,5.169,5.169,0,0,1,2.162.463L-15.149-5.1a4.809,4.809,0,0,0-1.764-.434q-1.09,0-1.09.621a.625.625,0,0,0,.284.516,6.249,6.249,0,0,0,1.239.58,5.665,5.665,0,0,1,1.166.568,1.7,1.7,0,0,1,.539.595A1.721,1.721,0,0,1-14.6-1.846ZM-9.056,0l-.275-.9h-.047a2.655,2.655,0,0,1-.943.806A2.983,2.983,0,0,1-11.54.117,2.063,2.063,0,0,1-13.031-.4a1.929,1.929,0,0,1-.536-1.459,1.713,1.713,0,0,1,.744-1.512,4.291,4.291,0,0,1,2.268-.557l1.119-.035v-.346a1.31,1.31,0,0,0-.29-.929,1.183,1.183,0,0,0-.9-.308,3.11,3.11,0,0,0-.955.146,7.207,7.207,0,0,0-.879.346l-.445-.984a4.793,4.793,0,0,1,1.154-.419A5.312,5.312,0,0,1-10.567-6.6,2.8,2.8,0,0,1-8.7-6.059a2.111,2.111,0,0,1,.63,1.693V0Zm-2.051-.937a1.706,1.706,0,0,0,1.2-.419,1.519,1.519,0,0,0,.454-1.175v-.562l-.832.035a2.847,2.847,0,0,0-1.415.325.988.988,0,0,0-.442.888.866.866,0,0,0,.258.671A1.108,1.108,0,0,0-11.106-.937Zm-.012-8a7.548,7.548,0,0,0,.721-1.189h1.148v.123a7.059,7.059,0,0,1-1.2,1.213h-.668Zm.469,1.67a1.968,1.968,0,0,1-1.374-.445,1.82,1.82,0,0,1-.536-1.307h.744a.9.9,0,0,0,.313.659,1.4,1.4,0,0,0,.864.214,1.364,1.364,0,0,0,.814-.22.9.9,0,0,0,.357-.653h.756a1.829,1.829,0,0,1-.571,1.292A1.972,1.972,0,0,1-10.649-7.271ZM-.688,0H-2.071V-4a1.812,1.812,0,0,0-.281-1.11,1.038,1.038,0,0,0-.879-.366A1.341,1.341,0,0,0-4.4-4.954a3.042,3.042,0,0,0-.372,1.726V0H-6.149V-6.48h1.078l.193.85h.07a1.8,1.8,0,0,1,.782-.715A2.522,2.522,0,0,1-2.9-6.6a1.971,1.971,0,0,1,1.98,1.02h.094a1.976,1.976,0,0,1,.809-.75,2.566,2.566,0,0,1,1.2-.27,2.177,2.177,0,0,1,1.69.586A2.6,2.6,0,0,1,3.4-4.225V0H2.024V-4a1.8,1.8,0,0,0-.284-1.11,1.046,1.046,0,0,0-.882-.366,1.367,1.367,0,0,0-1.175.5A2.582,2.582,0,0,0-.688-3.434ZM10.854-1a3.349,3.349,0,0,0,1.008-.158V-.117a2.78,2.78,0,0,1-.589.167,4.057,4.057,0,0,1-.747.067q-1.957,0-1.957-2.062V-5.437H7.685v-.609l.949-.5L9.1-7.922h.85V-6.48H11.8v1.043H9.952v3.469a.973.973,0,0,0,.249.735A.908.908,0,0,0,10.854-1Zm8,1H17.476V-3.984a1.744,1.744,0,0,0-.3-1.119,1.166,1.166,0,0,0-.958-.369,1.521,1.521,0,0,0-1.274.519,2.857,2.857,0,0,0-.407,1.737V0H13.157V-9.117h1.377V-6.8a10.8,10.8,0,0,1-.07,1.189h.088a1.912,1.912,0,0,1,.782-.727A2.521,2.521,0,0,1,16.5-6.6a2.09,2.09,0,0,1,2.355,2.373Zm3.293,0H20.774V-6.48h1.377ZM20.692-8.2a.762.762,0,0,1,.2-.568.788.788,0,0,1,.577-.2.771.771,0,0,1,.565.2.762.762,0,0,1,.2.568.748.748,0,0,1-.2.554.764.764,0,0,1-.565.2.781.781,0,0,1-.577-.2A.748.748,0,0,1,20.692-8.2ZM26.95.117a3.135,3.135,0,0,1-2.364-.882,3.348,3.348,0,0,1-.853-2.429,3.673,3.673,0,0,1,.791-2.5A2.732,2.732,0,0,1,26.7-6.6a2.67,2.67,0,0,1,2.027.779,2.978,2.978,0,0,1,.744,2.145v.744H25.151a2.129,2.129,0,0,0,.51,1.45,1.776,1.776,0,0,0,1.354.507,5,5,0,0,0,1.069-.108,5.605,5.605,0,0,0,1.063-.36V-.322a4.228,4.228,0,0,1-1.02.34A6.252,6.252,0,0,1,26.95.117ZM26.7-5.555a1.383,1.383,0,0,0-1.052.416,1.983,1.983,0,0,0-.472,1.213h2.941a1.794,1.794,0,0,0-.387-1.216A1.323,1.323,0,0,0,26.7-5.555Zm1.969-1.717h-.744a10.259,10.259,0,0,1-1.236-.973,11.836,11.836,0,0,1-1.236.973h-.756v-.146Q25.608-8.479,25.966-9h1.441a15.992,15.992,0,0,0,1.26,1.582Zm-.492-1.283a5.7,5.7,0,0,0,.779-1.189h1.213v.123a6.878,6.878,0,0,1-1.26,1.207h-.732ZM33.448-1a3.349,3.349,0,0,0,1.008-.158V-.117a2.78,2.78,0,0,1-.589.167,4.057,4.057,0,0,1-.747.067q-1.957,0-1.957-2.062V-5.437h-.885v-.609l.949-.5L31.7-7.922h.85V-6.48h1.846v1.043H32.546v3.469a.973.973,0,0,0,.249.735A.908.908,0,0,0,33.448-1Zm8.73-5.6a2.249,2.249,0,0,1,1.89.879,3.963,3.963,0,0,1,.677,2.467A3.976,3.976,0,0,1,44.06-.771a2.271,2.271,0,0,1-1.9.888,2.27,2.27,0,0,1-1.91-.885h-.094L39.9,0H38.868V-9.117h1.377v2.168q0,.24-.023.715t-.035.6h.059A2.187,2.187,0,0,1,42.179-6.6Zm-.357,1.125a1.4,1.4,0,0,0-1.2.489,2.846,2.846,0,0,0-.378,1.638v.094a3.031,3.031,0,0,0,.375,1.714,1.4,1.4,0,0,0,1.225.53,1.241,1.241,0,0,0,1.11-.58,3.077,3.077,0,0,0,.378-1.676Q43.333-5.473,41.821-5.473ZM47.722,0H46.345V-6.48h1.377ZM46.263-8.2a.762.762,0,0,1,.2-.568.788.788,0,0,1,.577-.2.771.771,0,0,1,.565.2.762.762,0,0,1,.2.568.748.748,0,0,1-.2.554.764.764,0,0,1-.565.2.781.781,0,0,1-.577-.2A.748.748,0,0,1,46.263-8.2Zm-.018,9.732a.762.762,0,0,1,.2-.568.788.788,0,0,1,.577-.2.761.761,0,0,1,.571.2.778.778,0,0,1,.2.565.757.757,0,0,1-.2.551.756.756,0,0,1-.568.205.781.781,0,0,1-.577-.2A.748.748,0,0,1,46.245,1.535Z" transform="translate(329.014 309)" fill="#4d4f5c"/>
      <path id="Path_96473" data-name="Path 96473" d="M-32.115,0h-1.4V-7.365h-2.52v-1.2H-29.6v1.2h-2.52Zm7.74,0-.275-.9H-24.7a2.655,2.655,0,0,1-.943.806,2.983,2.983,0,0,1-1.219.214A2.063,2.063,0,0,1-28.351-.4a1.929,1.929,0,0,1-.536-1.459,1.713,1.713,0,0,1,.744-1.512,4.291,4.291,0,0,1,2.268-.557l1.119-.035v-.346a1.31,1.31,0,0,0-.29-.929,1.183,1.183,0,0,0-.9-.308A3.11,3.11,0,0,0-26.9-5.4a7.207,7.207,0,0,0-.879.346l-.445-.984a4.793,4.793,0,0,1,1.154-.419A5.312,5.312,0,0,1-25.887-6.6a2.8,2.8,0,0,1,1.866.539,2.111,2.111,0,0,1,.63,1.693V0Zm-2.051-.937a1.706,1.706,0,0,0,1.2-.419,1.519,1.519,0,0,0,.454-1.175v-.562l-.832.035a2.847,2.847,0,0,0-1.415.325.988.988,0,0,0-.442.888.866.866,0,0,0,.258.671A1.108,1.108,0,0,0-26.426-.937Zm.521-6.334a2.121,2.121,0,0,1-1.45-.466,1.792,1.792,0,0,1-.577-1.31h.8a.868.868,0,0,0,.158.448.7.7,0,0,0,.366.237,2.745,2.745,0,0,0,.724.07,1.7,1.7,0,0,0,.911-.193.734.734,0,0,0,.337-.562h.82a1.827,1.827,0,0,1-.633,1.3A2.185,2.185,0,0,1-25.9-7.271ZM-15.768,0H-17.15V-3.984a1.744,1.744,0,0,0-.3-1.119,1.166,1.166,0,0,0-.958-.369,1.523,1.523,0,0,0-1.277.516,2.847,2.847,0,0,0-.4,1.729V0h-1.377V-6.48h1.078l.193.85h.07a1.917,1.917,0,0,1,.832-.715A2.788,2.788,0,0,1-18.1-6.6a2.08,2.08,0,0,1,2.332,2.373Zm7.389-6.48v.756l-1.107.205a1.787,1.787,0,0,1,.252.5,1.988,1.988,0,0,1,.1.633,1.939,1.939,0,0,1-.691,1.576,2.893,2.893,0,0,1-1.9.574,3.088,3.088,0,0,1-.562-.047.776.776,0,0,0-.445.645.358.358,0,0,0,.208.334,1.8,1.8,0,0,0,.765.111h1.131a2.514,2.514,0,0,1,1.629.457A1.608,1.608,0,0,1-8.449.586a1.917,1.917,0,0,1-.908,1.7,4.782,4.782,0,0,1-2.625.6A3.623,3.623,0,0,1-14,2.414a1.515,1.515,0,0,1-.7-1.336,1.422,1.422,0,0,1,.378-1,2.025,2.025,0,0,1,1.058-.565A1.035,1.035,0,0,1-13.72-.87a.954.954,0,0,1-.179-.548.943.943,0,0,1,.205-.615,2.366,2.366,0,0,1,.609-.5,1.8,1.8,0,0,1-.817-.706,2.077,2.077,0,0,1-.313-1.146,2.054,2.054,0,0,1,.665-1.635,2.8,2.8,0,0,1,1.9-.58,4.614,4.614,0,0,1,.577.038,3.633,3.633,0,0,1,.454.079Zm-5.092,7.488a.757.757,0,0,0,.4.686,2.206,2.206,0,0,0,1.128.24,3.408,3.408,0,0,0,1.676-.322A.966.966,0,0,0-9.715.756a.642.642,0,0,0-.3-.6,2.423,2.423,0,0,0-1.122-.179h-1.043a1.465,1.465,0,0,0-.94.278A.913.913,0,0,0-13.471,1.008Zm.592-5.391a1.3,1.3,0,0,0,.313.938,1.185,1.185,0,0,0,.9.328q1.2,0,1.2-1.277a1.449,1.449,0,0,0-.3-.976,1.124,1.124,0,0,0-.9-.343,1.159,1.159,0,0,0-.905.34A1.429,1.429,0,0,0-12.879-4.383ZM-1.646-1A3.349,3.349,0,0,0-.639-1.154V-.117A2.78,2.78,0,0,1-1.228.05a4.057,4.057,0,0,1-.747.067q-1.957,0-1.957-2.062V-5.437h-.885v-.609l.949-.5L-3.4-7.922h.85V-6.48H-.7v1.043H-2.549v3.469a.973.973,0,0,0,.249.735A.908.908,0,0,0-1.646-1Zm8,1H4.975V-3.984a1.744,1.744,0,0,0-.3-1.119,1.166,1.166,0,0,0-.958-.369,1.521,1.521,0,0,0-1.274.519,2.857,2.857,0,0,0-.407,1.737V0H.656V-9.117H2.033V-6.8a10.8,10.8,0,0,1-.07,1.189h.088a1.912,1.912,0,0,1,.782-.727A2.521,2.521,0,0,1,4-6.6,2.09,2.09,0,0,1,6.357-4.225ZM9.65,0H8.273V-6.48H9.65ZM8.191-8.2a.762.762,0,0,1,.2-.568.788.788,0,0,1,.577-.2.771.771,0,0,1,.565.2.762.762,0,0,1,.2.568.748.748,0,0,1-.2.554.764.764,0,0,1-.565.2.781.781,0,0,1-.577-.2A.748.748,0,0,1,8.191-8.2ZM14.449.117a3.135,3.135,0,0,1-2.364-.882,3.348,3.348,0,0,1-.853-2.429,3.673,3.673,0,0,1,.791-2.5A2.732,2.732,0,0,1,14.2-6.6a2.67,2.67,0,0,1,2.027.779,2.978,2.978,0,0,1,.744,2.145v.744H12.65a2.129,2.129,0,0,0,.51,1.45,1.776,1.776,0,0,0,1.354.507,5,5,0,0,0,1.069-.108,5.605,5.605,0,0,0,1.063-.36V-.322a4.228,4.228,0,0,1-1.02.34A6.252,6.252,0,0,1,14.449.117ZM14.2-5.555a1.383,1.383,0,0,0-1.052.416,1.983,1.983,0,0,0-.472,1.213h2.941a1.794,1.794,0,0,0-.387-1.216A1.323,1.323,0,0,0,14.2-5.555Zm1.969-1.717h-.744a10.259,10.259,0,0,1-1.236-.973,11.836,11.836,0,0,1-1.236.973h-.756v-.146Q13.107-8.479,13.465-9h1.441a15.992,15.992,0,0,0,1.26,1.582Zm-.492-1.283a5.7,5.7,0,0,0,.779-1.189h1.213v.123a6.878,6.878,0,0,1-1.26,1.207h-.732ZM20.947-1a3.349,3.349,0,0,0,1.008-.158V-.117a2.78,2.78,0,0,1-.589.167,4.057,4.057,0,0,1-.747.067q-1.957,0-1.957-2.062V-5.437h-.885v-.609l.949-.5L19.2-7.922h.85V-6.48h1.846v1.043H20.045v3.469a.973.973,0,0,0,.249.735A.908.908,0,0,0,20.947-1Zm8.73-5.6a2.249,2.249,0,0,1,1.89.879,3.963,3.963,0,0,1,.677,2.467,3.976,3.976,0,0,1-.686,2.481,2.271,2.271,0,0,1-1.9.888,2.27,2.27,0,0,1-1.91-.885H27.65L27.4,0H26.367V-9.117h1.377v2.168q0,.24-.023.715t-.035.6h.059A2.187,2.187,0,0,1,29.678-6.6ZM29.32-5.473a1.4,1.4,0,0,0-1.2.489,2.846,2.846,0,0,0-.378,1.638v.094a3.031,3.031,0,0,0,.375,1.714,1.4,1.4,0,0,0,1.225.53,1.241,1.241,0,0,0,1.11-.58,3.077,3.077,0,0,0,.378-1.676Q30.832-5.473,29.32-5.473ZM35.221,0H33.844V-6.48h1.377ZM33.762-8.2a.762.762,0,0,1,.2-.568.788.788,0,0,1,.577-.2.771.771,0,0,1,.565.2.762.762,0,0,1,.2.568.748.748,0,0,1-.2.554.764.764,0,0,1-.565.2.781.781,0,0,1-.577-.2A.748.748,0,0,1,33.762-8.2Zm-.018,9.732a.762.762,0,0,1,.2-.568.788.788,0,0,1,.577-.2.761.761,0,0,1,.571.2.778.778,0,0,1,.2.565.757.757,0,0,1-.2.551.756.756,0,0,1-.568.205.781.781,0,0,1-.577-.2A.748.748,0,0,1,33.744,1.535Z" transform="translate(198.02 420.745)" fill="#4d4f5c"/>
      <path id="Path_96472" data-name="Path 96472" d="M-50.183,0h-1.4V-7.365H-54.1v-1.2h6.439v1.2h-2.52ZM-40.8,0h-1.383V-3.984a1.744,1.744,0,0,0-.3-1.119,1.166,1.166,0,0,0-.958-.369,1.521,1.521,0,0,0-1.274.519,2.857,2.857,0,0,0-.407,1.737V0H-46.5V-9.117h1.377V-6.8a10.8,10.8,0,0,1-.07,1.189h.088a1.912,1.912,0,0,1,.782-.727A2.521,2.521,0,0,1-43.151-6.6,2.09,2.09,0,0,1-40.8-4.225Zm4.746.117a3.135,3.135,0,0,1-2.364-.882,3.348,3.348,0,0,1-.853-2.429,3.673,3.673,0,0,1,.791-2.5A2.732,2.732,0,0,1-36.3-6.6a2.67,2.67,0,0,1,2.027.779,2.978,2.978,0,0,1,.744,2.145v.744h-4.318a2.129,2.129,0,0,0,.51,1.45,1.776,1.776,0,0,0,1.354.507,5,5,0,0,0,1.069-.108,5.605,5.605,0,0,0,1.063-.36V-.322a4.228,4.228,0,0,1-1.02.34A6.252,6.252,0,0,1-36.05.117ZM-36.3-5.555a1.383,1.383,0,0,0-1.052.416,1.983,1.983,0,0,0-.472,1.213h2.941a1.794,1.794,0,0,0-.387-1.216A1.323,1.323,0,0,0-36.3-5.555Zm10.084,2.3a3.537,3.537,0,0,1-.814,2.479A2.918,2.918,0,0,1-29.3.117a3.107,3.107,0,0,1-1.605-.41,2.708,2.708,0,0,1-1.072-1.178,4.011,4.011,0,0,1-.375-1.781,3.513,3.513,0,0,1,.809-2.461A2.932,2.932,0,0,1-29.265-6.6a2.855,2.855,0,0,1,2.227.905A3.5,3.5,0,0,1-26.218-3.252Zm-4.717,0q0,2.244,1.658,2.244,1.641,0,1.641-2.244,0-2.221-1.652-2.221a1.409,1.409,0,0,0-1.257.574A2.922,2.922,0,0,0-30.935-3.252Zm11.6,3.369a2.257,2.257,0,0,1-1.893-.879,3.95,3.95,0,0,1-.68-2.467,3.963,3.963,0,0,1,.688-2.481A2.279,2.279,0,0,1-19.31-6.6a2.234,2.234,0,0,1,1.945.943h.07a8.254,8.254,0,0,1-.1-1.1V-9.117h1.383V0h-1.078l-.24-.85h-.064A2.2,2.2,0,0,1-19.333.117ZM-18.964-1a1.5,1.5,0,0,0,1.236-.478,2.514,2.514,0,0,0,.4-1.55v-.193a2.9,2.9,0,0,0-.4-1.74,1.478,1.478,0,0,0-1.248-.516,1.266,1.266,0,0,0-1.119.589,3.018,3.018,0,0,0-.393,1.679,2.942,2.942,0,0,0,.381,1.644A1.286,1.286,0,0,0-18.964-1Zm10.67-2.256A3.537,3.537,0,0,1-9.108-.773a2.918,2.918,0,0,1-2.268.891,3.107,3.107,0,0,1-1.605-.41,2.708,2.708,0,0,1-1.072-1.178,4.011,4.011,0,0,1-.375-1.781,3.513,3.513,0,0,1,.809-2.461A2.932,2.932,0,0,1-11.341-6.6a2.855,2.855,0,0,1,2.227.905A3.5,3.5,0,0,1-8.294-3.252Zm-4.717,0q0,2.244,1.658,2.244,1.641,0,1.641-2.244,0-2.221-1.652-2.221a1.409,1.409,0,0,0-1.257.574A2.922,2.922,0,0,0-13.011-3.252Zm2.525-4.02a1.208,1.208,0,0,1-.483-.1q-.237-.1-.466-.229t-.445-.229a.972.972,0,0,0-.416-.1q-.475,0-.639.674h-.715A2.083,2.083,0,0,1-13.2-8.5a1.26,1.26,0,0,1,.981-.428,1.242,1.242,0,0,1,.492.1,5.193,5.193,0,0,1,.469.229q.229.126.442.229a.954.954,0,0,0,.413.1q.463,0,.621-.674h.732A2.125,2.125,0,0,1-9.5-7.714,1.245,1.245,0,0,1-10.485-7.271ZM-5.335,0H-6.712V-6.48h1.377ZM-6.794-8.2a.762.762,0,0,1,.2-.568.788.788,0,0,1,.577-.2.771.771,0,0,1,.565.2.762.762,0,0,1,.2.568.748.748,0,0,1-.2.554.764.764,0,0,1-.565.2.781.781,0,0,1-.577-.2A.748.748,0,0,1-6.794-8.2ZM5.452,0H4.069V-3.984a1.744,1.744,0,0,0-.3-1.119,1.166,1.166,0,0,0-.958-.369,1.521,1.521,0,0,0-1.274.519,2.857,2.857,0,0,0-.407,1.737V0H-.249V-9.117H1.128V-6.8a10.8,10.8,0,0,1-.07,1.189h.088a1.912,1.912,0,0,1,.782-.727A2.521,2.521,0,0,1,3.1-6.6,2.09,2.09,0,0,1,5.452-4.225Zm7.664-3.252A3.537,3.537,0,0,1,12.3-.773a2.918,2.918,0,0,1-2.268.891,3.107,3.107,0,0,1-1.605-.41A2.708,2.708,0,0,1,7.356-1.471a4.011,4.011,0,0,1-.375-1.781A3.513,3.513,0,0,1,7.79-5.713,2.932,2.932,0,0,1,10.069-6.6a2.855,2.855,0,0,1,2.227.905A3.5,3.5,0,0,1,13.116-3.252Zm-4.717,0q0,2.244,1.658,2.244,1.641,0,1.641-2.244,0-2.221-1.652-2.221A1.409,1.409,0,0,0,8.789-4.9,2.922,2.922,0,0,0,8.4-3.252Zm3.059-5.484a1.067,1.067,0,0,1-.961,1.09l-.059.545H9.624l-.111-.949a1.773,1.773,0,0,0,.653-.217.45.45,0,0,0,.214-.4q0-.428-.639-.428a2.792,2.792,0,0,0-.68.082V-9.8a3.394,3.394,0,0,1,.826-.1,1.967,1.967,0,0,1,1.169.293A1.011,1.011,0,0,1,11.458-8.736ZM20.4,0H19.017V-3.984a1.744,1.744,0,0,0-.3-1.119,1.166,1.166,0,0,0-.958-.369,1.523,1.523,0,0,0-1.277.516,2.847,2.847,0,0,0-.4,1.729V0H14.7V-6.48h1.078l.193.85h.07a1.917,1.917,0,0,1,.832-.715,2.788,2.788,0,0,1,1.2-.252A2.08,2.08,0,0,1,20.4-4.225Zm7.389-6.48v.756l-1.107.205a1.787,1.787,0,0,1,.252.5,1.988,1.988,0,0,1,.1.633,1.939,1.939,0,0,1-.691,1.576,2.893,2.893,0,0,1-1.9.574,3.088,3.088,0,0,1-.562-.047.776.776,0,0,0-.445.645.358.358,0,0,0,.208.334,1.8,1.8,0,0,0,.765.111h1.131a2.514,2.514,0,0,1,1.629.457A1.608,1.608,0,0,1,27.718.586a1.917,1.917,0,0,1-.908,1.7,4.782,4.782,0,0,1-2.625.6,3.623,3.623,0,0,1-2.021-.469,1.515,1.515,0,0,1-.7-1.336,1.422,1.422,0,0,1,.378-1A2.025,2.025,0,0,1,22.9-.492a1.035,1.035,0,0,1-.454-.378.954.954,0,0,1-.179-.548.943.943,0,0,1,.205-.615,2.366,2.366,0,0,1,.609-.5,1.8,1.8,0,0,1-.817-.706,2.077,2.077,0,0,1-.313-1.146,2.054,2.054,0,0,1,.665-1.635,2.8,2.8,0,0,1,1.9-.58,4.614,4.614,0,0,1,.577.038,3.633,3.633,0,0,1,.454.079ZM22.7,1.008a.757.757,0,0,0,.4.686,2.206,2.206,0,0,0,1.128.24A3.408,3.408,0,0,0,25.9,1.611a.966.966,0,0,0,.551-.855.642.642,0,0,0-.3-.6,2.423,2.423,0,0,0-1.122-.179H23.985a1.465,1.465,0,0,0-.94.278A.913.913,0,0,0,22.7,1.008Zm.592-5.391a1.3,1.3,0,0,0,.313.938,1.185,1.185,0,0,0,.9.328q1.2,0,1.2-1.277a1.449,1.449,0,0,0-.3-.976,1.124,1.124,0,0,0-.9-.343,1.159,1.159,0,0,0-.905.34A1.429,1.429,0,0,0,23.288-4.383ZM37.567,0H36.185V-4a1.812,1.812,0,0,0-.281-1.11,1.038,1.038,0,0,0-.879-.366,1.341,1.341,0,0,0-1.169.519,3.042,3.042,0,0,0-.372,1.726V0H32.106V-6.48h1.078l.193.85h.07a1.8,1.8,0,0,1,.782-.715A2.522,2.522,0,0,1,35.358-6.6a1.971,1.971,0,0,1,1.98,1.02h.094a1.976,1.976,0,0,1,.809-.75,2.566,2.566,0,0,1,1.2-.27,2.177,2.177,0,0,1,1.69.586,2.6,2.6,0,0,1,.53,1.787V0H40.28V-4A1.8,1.8,0,0,0,40-5.106a1.046,1.046,0,0,0-.882-.366,1.367,1.367,0,0,0-1.175.5,2.582,2.582,0,0,0-.372,1.538ZM47.634,0l-.275-.9h-.047a2.655,2.655,0,0,1-.943.806,2.983,2.983,0,0,1-1.219.214A2.063,2.063,0,0,1,43.658-.4a1.929,1.929,0,0,1-.536-1.459,1.713,1.713,0,0,1,.744-1.512,4.291,4.291,0,0,1,2.268-.557l1.119-.035v-.346a1.31,1.31,0,0,0-.29-.929,1.183,1.183,0,0,0-.9-.308,3.11,3.11,0,0,0-.955.146,7.207,7.207,0,0,0-.879.346l-.445-.984a4.793,4.793,0,0,1,1.154-.419A5.312,5.312,0,0,1,46.122-6.6a2.8,2.8,0,0,1,1.866.539,2.111,2.111,0,0,1,.63,1.693V0ZM45.583-.937a1.706,1.706,0,0,0,1.2-.419,1.519,1.519,0,0,0,.454-1.175v-.562l-.832.035a2.847,2.847,0,0,0-1.415.325.988.988,0,0,0-.442.888.866.866,0,0,0,.258.671A1.108,1.108,0,0,0,45.583-.937Zm2.449-6.334h-.744a10.259,10.259,0,0,1-1.236-.973,11.836,11.836,0,0,1-1.236.973H44.06v-.146Q44.974-8.479,45.331-9h1.441a15.992,15.992,0,0,0,1.26,1.582ZM47.54-8.555a5.7,5.7,0,0,0,.779-1.189h1.213v.123a6.878,6.878,0,0,1-1.26,1.207H47.54ZM52.954-1a3.349,3.349,0,0,0,1.008-.158V-.117a2.78,2.78,0,0,1-.589.167,4.057,4.057,0,0,1-.747.067q-1.957,0-1.957-2.062V-5.437h-.885v-.609l.949-.5L51.2-7.922h.85V-6.48H53.9v1.043H52.052v3.469a.973.973,0,0,0,.249.735A.908.908,0,0,0,52.954-1Z" transform="translate(332.014 549)" fill="#4d4f5c"/>
      <path id="Path_96470" data-name="Path 96470" d="M-20.66,0h-1.4V-7.365h-2.52v-1.2h6.439v1.2h-2.52Zm9.387,0h-1.383V-3.984a1.744,1.744,0,0,0-.3-1.119,1.166,1.166,0,0,0-.958-.369,1.521,1.521,0,0,0-1.274.519A2.857,2.857,0,0,0-15.6-3.217V0h-1.377V-9.117H-15.6V-6.8a10.8,10.8,0,0,1-.07,1.189h.088A1.912,1.912,0,0,1-14.8-6.34,2.521,2.521,0,0,1-13.629-6.6a2.09,2.09,0,0,1,2.355,2.373ZM-5.3,0l-.275-.9h-.047A2.655,2.655,0,0,1-6.568-.1,2.983,2.983,0,0,1-7.787.117,2.063,2.063,0,0,1-9.278-.4a1.929,1.929,0,0,1-.536-1.459A1.713,1.713,0,0,1-9.07-3.369,4.291,4.291,0,0,1-6.8-3.926l1.119-.035v-.346a1.31,1.31,0,0,0-.29-.929,1.183,1.183,0,0,0-.9-.308,3.11,3.11,0,0,0-.955.146,7.207,7.207,0,0,0-.879.346l-.445-.984A4.793,4.793,0,0,1-8-6.454,5.312,5.312,0,0,1-6.814-6.6a2.8,2.8,0,0,1,1.866.539,2.111,2.111,0,0,1,.63,1.693V0ZM-7.354-.937a1.706,1.706,0,0,0,1.2-.419A1.519,1.519,0,0,0-5.7-2.531v-.562l-.832.035a2.847,2.847,0,0,0-1.415.325.988.988,0,0,0-.442.888.866.866,0,0,0,.258.671A1.108,1.108,0,0,0-7.354-.937ZM3.3,0H1.922V-3.984A1.744,1.744,0,0,0,1.62-5.1a1.166,1.166,0,0,0-.958-.369,1.523,1.523,0,0,0-1.277.516,2.847,2.847,0,0,0-.4,1.729V0H-2.4V-6.48h1.078l.193.85h.07a1.917,1.917,0,0,1,.832-.715A2.788,2.788,0,0,1,.973-6.6,2.08,2.08,0,0,1,3.3-4.225Zm7.617,0H9.539V-3.984a1.744,1.744,0,0,0-.3-1.119,1.166,1.166,0,0,0-.958-.369A1.521,1.521,0,0,0,7-4.954,2.857,2.857,0,0,0,6.6-3.217V0H5.221V-9.117H6.6V-6.8a10.8,10.8,0,0,1-.07,1.189h.088A1.912,1.912,0,0,1,7.4-6.34,2.521,2.521,0,0,1,8.566-6.6a2.09,2.09,0,0,1,2.355,2.373Zm6.41,0H15.955V-9.117h1.377Zm.984-6.48h1.5l1.318,3.674a6.971,6.971,0,0,1,.4,1.477h.047a6.159,6.159,0,0,1,.193-.782q.141-.46,1.488-4.368H24.75L21.979.861a2.629,2.629,0,0,1-2.52,2.021,3.965,3.965,0,0,1-.891-.1V1.693a3.227,3.227,0,0,0,.709.07,1.452,1.452,0,0,0,1.4-1.154L20.918,0Zm2.35-.791v-.146q.334-.41.688-.914t.56-.861h1.6v.123a12.032,12.032,0,0,1-.911.923,12.847,12.847,0,0,1-1.022.876Z" transform="translate(793.014 309)" fill="#4d4f5c"/>
      <path id="Path_96471" data-name="Path 96471" d="M-32.795-4.646h3.152v4.3a9.123,9.123,0,0,1-1.485.357,10.515,10.515,0,0,1-1.538.105,3.863,3.863,0,0,1-3-1.151,4.636,4.636,0,0,1-1.055-3.249,4.332,4.332,0,0,1,1.189-3.237,4.471,4.471,0,0,1,3.275-1.169,6.379,6.379,0,0,1,2.543.516l-.492,1.166a4.949,4.949,0,0,0-2.086-.48,2.809,2.809,0,0,0-2.168.861,3.334,3.334,0,0,0-.8,2.355,3.516,3.516,0,0,0,.718,2.388,2.6,2.6,0,0,0,2.065.817,6.788,6.788,0,0,0,1.453-.17V-3.445h-1.775ZM-26.355,0h-1.377V-6.48h1.377Zm-1.459-8.2a.762.762,0,0,1,.2-.568.788.788,0,0,1,.577-.2.771.771,0,0,1,.565.2.762.762,0,0,1,.2.568.748.748,0,0,1-.2.554.764.764,0,0,1-.565.2.781.781,0,0,1-.577-.2A.748.748,0,0,1-27.814-8.2ZM-20.332,0l-.275-.9h-.047A2.655,2.655,0,0,1-21.6-.1a2.983,2.983,0,0,1-1.219.214A2.063,2.063,0,0,1-24.308-.4a1.929,1.929,0,0,1-.536-1.459A1.713,1.713,0,0,1-24.1-3.369a4.291,4.291,0,0,1,2.268-.557l1.119-.035v-.346A1.31,1.31,0,0,0-21-5.235a1.183,1.183,0,0,0-.9-.308,3.11,3.11,0,0,0-.955.146,7.207,7.207,0,0,0-.879.346l-.445-.984a4.793,4.793,0,0,1,1.154-.419A5.312,5.312,0,0,1-21.844-6.6a2.8,2.8,0,0,1,1.866.539,2.111,2.111,0,0,1,.63,1.693V0Zm-2.051-.937a1.706,1.706,0,0,0,1.2-.419,1.519,1.519,0,0,0,.454-1.175v-.562l-.832.035a2.847,2.847,0,0,0-1.415.325.988.988,0,0,0-.442.888.866.866,0,0,0,.258.671A1.108,1.108,0,0,0-22.383-.937Zm1.893-7.8a1.067,1.067,0,0,1-.961,1.09l-.059.545h-.814l-.111-.949a1.773,1.773,0,0,0,.653-.217.45.45,0,0,0,.214-.4q0-.428-.639-.428a2.792,2.792,0,0,0-.68.082V-9.8a3.394,3.394,0,0,1,.826-.1,1.967,1.967,0,0,1,1.169.293A1.011,1.011,0,0,1-20.49-8.736ZM-11.965,0h-1.383V-4a1.812,1.812,0,0,0-.281-1.11,1.038,1.038,0,0,0-.879-.366,1.341,1.341,0,0,0-1.169.519,3.042,3.042,0,0,0-.372,1.726V0h-1.377V-6.48h1.078l.193.85h.07a1.8,1.8,0,0,1,.782-.715A2.522,2.522,0,0,1-14.174-6.6a1.971,1.971,0,0,1,1.98,1.02h.094a1.976,1.976,0,0,1,.809-.75,2.566,2.566,0,0,1,1.2-.27,2.177,2.177,0,0,1,1.69.586,2.6,2.6,0,0,1,.53,1.787V0H-9.252V-4a1.8,1.8,0,0,0-.284-1.11,1.046,1.046,0,0,0-.882-.366,1.367,1.367,0,0,0-1.175.5,2.582,2.582,0,0,0-.372,1.538ZM-.422-1A3.349,3.349,0,0,0,.586-1.154V-.117A2.78,2.78,0,0,1,0,.05,4.057,4.057,0,0,1-.75.117q-1.957,0-1.957-2.062V-5.437h-.885v-.609l.949-.5.469-1.371h.85V-6.48H.521v1.043H-1.324v3.469a.973.973,0,0,0,.249.735A.908.908,0,0,0-.422-1Zm8,1H6.2V-3.984A1.744,1.744,0,0,0,5.9-5.1a1.166,1.166,0,0,0-.958-.369,1.521,1.521,0,0,0-1.274.519,2.857,2.857,0,0,0-.407,1.737V0H1.881V-9.117H3.258V-6.8a10.8,10.8,0,0,1-.07,1.189h.088a1.912,1.912,0,0,1,.782-.727A2.521,2.521,0,0,1,5.227-6.6,2.09,2.09,0,0,1,7.582-4.225Zm3.293,0H9.5V-6.48h1.377ZM9.416-8.2a.762.762,0,0,1,.2-.568.788.788,0,0,1,.577-.2.771.771,0,0,1,.565.2.762.762,0,0,1,.2.568.748.748,0,0,1-.2.554.764.764,0,0,1-.565.2.781.781,0,0,1-.577-.2A.748.748,0,0,1,9.416-8.2ZM15.674.117A3.135,3.135,0,0,1,13.31-.765a3.348,3.348,0,0,1-.853-2.429,3.673,3.673,0,0,1,.791-2.5A2.732,2.732,0,0,1,15.422-6.6a2.67,2.67,0,0,1,2.027.779,2.978,2.978,0,0,1,.744,2.145v.744H13.875a2.129,2.129,0,0,0,.51,1.45,1.776,1.776,0,0,0,1.354.507,5,5,0,0,0,1.069-.108,5.605,5.605,0,0,0,1.063-.36V-.322a4.228,4.228,0,0,1-1.02.34A6.252,6.252,0,0,1,15.674.117Zm-.252-5.672a1.383,1.383,0,0,0-1.052.416A1.983,1.983,0,0,0,13.9-3.926H16.84a1.794,1.794,0,0,0-.387-1.216A1.323,1.323,0,0,0,15.422-5.555Zm1.969-1.717h-.744a10.259,10.259,0,0,1-1.236-.973,11.836,11.836,0,0,1-1.236.973h-.756v-.146Q14.332-8.479,14.689-9h1.441a15.992,15.992,0,0,0,1.26,1.582ZM16.9-8.555a5.7,5.7,0,0,0,.779-1.189h1.213v.123a6.878,6.878,0,0,1-1.26,1.207H16.9ZM22.172-1a3.349,3.349,0,0,0,1.008-.158V-.117a2.78,2.78,0,0,1-.589.167,4.057,4.057,0,0,1-.747.067q-1.957,0-1.957-2.062V-5.437H19v-.609l.949-.5.469-1.371h.85V-6.48h1.846v1.043H21.27v3.469a.973.973,0,0,0,.249.735A.908.908,0,0,0,22.172-1ZM30.9-6.6a2.249,2.249,0,0,1,1.89.879,3.963,3.963,0,0,1,.677,2.467,3.976,3.976,0,0,1-.686,2.481,2.271,2.271,0,0,1-1.9.888,2.27,2.27,0,0,1-1.91-.885h-.094L28.623,0H27.592V-9.117h1.377v2.168q0,.24-.023.715t-.035.6h.059A2.187,2.187,0,0,1,30.9-6.6Zm-.357,1.125a1.4,1.4,0,0,0-1.2.489,2.846,2.846,0,0,0-.378,1.638v.094a3.031,3.031,0,0,0,.375,1.714,1.4,1.4,0,0,0,1.225.53,1.241,1.241,0,0,0,1.11-.58,3.077,3.077,0,0,0,.378-1.676Q32.057-5.473,30.545-5.473ZM36.445,0H35.068V-6.48h1.377ZM34.986-8.2a.762.762,0,0,1,.2-.568.788.788,0,0,1,.577-.2.771.771,0,0,1,.565.2.762.762,0,0,1,.2.568.748.748,0,0,1-.2.554.764.764,0,0,1-.565.2.781.781,0,0,1-.577-.2A.748.748,0,0,1,34.986-8.2Zm-.018,9.732a.762.762,0,0,1,.2-.568.788.788,0,0,1,.577-.2.761.761,0,0,1,.571.2.778.778,0,0,1,.2.565.757.757,0,0,1-.2.551.756.756,0,0,1-.568.205.781.781,0,0,1-.577-.2A.748.748,0,0,1,34.969,1.535Z" transform="translate(791.932 547.916)" fill="#4d4f5c"/>
      <path id="Path_96469" data-name="Path 96469" d="M-15.478,0H-17.1L-19.79-3.879l-.826.674V0h-1.4V-8.566h1.4v4.09q.574-.7,1.143-1.354l2.314-2.736h1.594Q-17.81-5.93-18.782-4.811Zm2.361,0h-1.377V-6.48h1.377Zm-1.459-8.2a.762.762,0,0,1,.2-.568.788.788,0,0,1,.577-.2.771.771,0,0,1,.565.2.762.762,0,0,1,.2.568.748.748,0,0,1-.2.554.764.764,0,0,1-.565.2.781.781,0,0,1-.577-.2A.748.748,0,0,1-14.575-8.2ZM-8.317.117a3.135,3.135,0,0,1-2.364-.882,3.348,3.348,0,0,1-.853-2.429,3.673,3.673,0,0,1,.791-2.5A2.732,2.732,0,0,1-8.569-6.6a2.67,2.67,0,0,1,2.027.779A2.978,2.978,0,0,1-5.8-3.674v.744h-4.318a2.129,2.129,0,0,0,.51,1.45,1.776,1.776,0,0,0,1.354.507,5,5,0,0,0,1.069-.108,5.605,5.605,0,0,0,1.063-.36V-.322a4.228,4.228,0,0,1-1.02.34A6.252,6.252,0,0,1-8.317.117Zm-.252-5.672a1.383,1.383,0,0,0-1.052.416,1.983,1.983,0,0,0-.472,1.213h2.941a1.794,1.794,0,0,0-.387-1.216A1.323,1.323,0,0,0-8.569-5.555Zm1.934-1.717H-7.38a10.259,10.259,0,0,1-1.236-.973,11.836,11.836,0,0,1-1.236.973h-.756v-.146Q-9.694-8.479-9.337-9H-7.9a15.992,15.992,0,0,0,1.26,1.582ZM-5.558-9.6q0,.633-.732.791l-.035.416h-.609L-7-9.105a1.4,1.4,0,0,0,.545-.141.312.312,0,0,0,.164-.281q0-.322-.527-.322a1.887,1.887,0,0,0-.422.047v-.615a2.462,2.462,0,0,1,.5-.035Q-5.558-10.453-5.558-9.6ZM1.228,0H-.155V-4a1.812,1.812,0,0,0-.281-1.11,1.038,1.038,0,0,0-.879-.366,1.341,1.341,0,0,0-1.169.519,3.042,3.042,0,0,0-.372,1.726V0H-4.233V-6.48h1.078l.193.85h.07a1.8,1.8,0,0,1,.782-.715A2.522,2.522,0,0,1-.981-6.6,1.971,1.971,0,0,1,1-5.578h.094a1.976,1.976,0,0,1,.809-.75A2.566,2.566,0,0,1,3.1-6.6a2.177,2.177,0,0,1,1.69.586,2.6,2.6,0,0,1,.53,1.787V0H3.94V-4a1.8,1.8,0,0,0-.284-1.11,1.046,1.046,0,0,0-.882-.366,1.367,1.367,0,0,0-1.175.5,2.582,2.582,0,0,0-.372,1.538ZM11.687-3.422l.779-.973L14.423-6.48h1.588L13.4-3.7,16.175,0H14.558l-2.08-2.842-.756.621V0H10.356V-9.117h1.365V-4.67l-.07,1.248ZM20.048.117a3.135,3.135,0,0,1-2.364-.882,3.348,3.348,0,0,1-.853-2.429,3.673,3.673,0,0,1,.791-2.5A2.732,2.732,0,0,1,19.8-6.6a2.67,2.67,0,0,1,2.027.779,2.978,2.978,0,0,1,.744,2.145v.744H18.249a2.129,2.129,0,0,0,.51,1.45,1.776,1.776,0,0,0,1.354.507,5,5,0,0,0,1.069-.108,5.605,5.605,0,0,0,1.063-.36V-.322a4.228,4.228,0,0,1-1.02.34A6.252,6.252,0,0,1,20.048.117ZM19.8-5.555a1.383,1.383,0,0,0-1.052.416,1.983,1.983,0,0,0-.472,1.213h2.941a1.794,1.794,0,0,0-.387-1.216A1.323,1.323,0,0,0,19.8-5.555Zm1.348-1.717a6.56,6.56,0,0,1-1.336-1.055,7.584,7.584,0,0,1-1.318,1.055h-.926v-.146a11.523,11.523,0,0,0,1.488-1.775h1.523a9.767,9.767,0,0,0,1.5,1.775v.146Z" transform="translate(575.497 427.375)" fill="#4d4f5c"/>
      <g id="Group_46227" data-name="Group 46227" transform="translate(531.402 333.609)">
        <g id="ic_Alert" transform="translate(0)" opacity="0">
          <path id="Path_95690" data-name="Path 95690" d="M32.806,0A32.806,32.806,0,1,1,0,32.806,32.806,32.806,0,0,1,32.806,0Z" transform="translate(0)" fill="#eafaf1"/>
        </g>
        <g id="ic_Alert-2" data-name="ic_Alert" transform="translate(50.457 43.463)" opacity="0.42">
          <path id="Path_95690-2" data-name="Path 95690" d="M12.021,0A12.021,12.021,0,1,1,0,12.021,12.021,12.021,0,0,1,12.021,0Z" transform="translate(0 0)" fill="#fff"/>
        </g>
        <g id="Group_45677" data-name="Group 45677" transform="translate(15.155 9.793)">
          <g id="Group_45662" data-name="Group 45662" transform="translate(0 0)">
            <path id="Path_95608" data-name="Path 95608" d="M93.727,223.323V201.346a1.782,1.782,0,0,0-1.694-1.849H87.8m-5.081,0H49.694A1.781,1.781,0,0,0,48,201.346V244.26" transform="translate(-48 -199.497)" fill="none" stroke="#757575" stroke-linecap="round" stroke-linejoin="round" stroke-width="1.5" fill-rule="evenodd"/>
            <path id="Path_95609" data-name="Path 95609" d="M81.614,209.62h-25.3v-5.546h25.3Z" transform="translate(-45.237 -196.824)" fill="#0fa655" fill-rule="evenodd"/>
            <path id="Path_95610" data-name="Path 95610" d="M60.7,223.932H56.314v-4.786H60.7Z" transform="translate(-48.761 -200.133)" fill="#0fa655" fill-rule="evenodd"/>
            <path id="Path_95611" data-name="Path 95611" d="M60.7,231.468H56.314v-4.786H60.7Z" transform="translate(-48.761 -199.368)" fill="#0fa655" fill-rule="evenodd"/>
            <path id="Path_95612" data-name="Path 95612" d="M60.7,231.468H56.314v-4.786H60.7Z" transform="translate(-48.761 -190.98)" fill="#0fa655" fill-rule="evenodd"/>
            <path id="Path_95619" data-name="Path 95619" d="M76.127,228H63.873" transform="translate(-47.251 -190.142)" fill="none" stroke="#757575" stroke-linecap="round" stroke-linejoin="round" stroke-width="1.5" fill-rule="evenodd"/>
            <path id="Path_95620" data-name="Path 95620" d="M84.043,228H63.873" transform="translate(-47.251 -198.479)" fill="none" stroke="#757575" stroke-linecap="round" stroke-linejoin="round" stroke-width="1.5" fill-rule="evenodd"/>
            <path id="Path_95621" data-name="Path 95621" d="M84.043,228H63.873" transform="translate(-47.251 -206.552)" fill="none" stroke="#757575" stroke-linecap="round" stroke-linejoin="round" stroke-width="1.5" fill-rule="evenodd"/>
          </g>
        </g>
        <g id="Group_46227-2" data-name="Group 46227" transform="translate(50.457 43.086)">
          <g id="Group_12088" data-name="Group 12088">
            <path id="Path_22553" data-name="Path 22553" d="M-676.924,211.157a12.1,12.1,0,0,1-12.082-12.082,12.1,12.1,0,0,1,12.082-12.082,12.1,12.1,0,0,1,12.082,12.082,12.133,12.133,0,0,1-4.966,9.766A12.007,12.007,0,0,1-676.924,211.157Zm0-22.373a10.3,10.3,0,0,0-10.292,10.292,10.305,10.305,0,0,0,10.292,10.294,10.2,10.2,0,0,0,6.059-1.976,10.32,10.32,0,0,0,4.232-8.318A10.3,10.3,0,0,0-676.924,188.784Z" transform="translate(689.006 -186.994)" fill="#0fa655"/>
          </g>
          <g id="Group_12089" data-name="Group 12089" transform="translate(18.405 22.296)">
            <path id="Path_22554" data-name="Path 22554" d="M-678.6,199.6" transform="translate(678.6 -199.6)" fill="#0fa655" stroke="#000" stroke-linecap="round" stroke-miterlimit="10" stroke-width="1.1"/>
          </g>
          <g id="Group_12090" data-name="Group 12090" transform="translate(18.819 19.723)">
            <path id="Path_22555" data-name="Path 22555" d="M-669.053,209.473a.975.975,0,0,1-.727-.327l-8.341-9.381a.975.975,0,0,1,.081-1.374.976.976,0,0,1,1.374.081l8.339,9.383a.972.972,0,0,1-.081,1.372A.967.967,0,0,1-669.053,209.473Z" transform="translate(678.365 -198.146)" fill="#0fa655"/>
          </g>
          <g id="Group_12091" data-name="Group 12091" transform="translate(9.429 9.429)">
            <path id="Path_22556" data-name="Path 22556" d="M-682.791,202.627a.884.884,0,0,1-.884-.884.885.885,0,0,1,.884-.884,7.588,7.588,0,0,0,4.5-1.466,7.683,7.683,0,0,0,3.145-6.183.885.885,0,0,1,.884-.884.885.885,0,0,1,.884.884,9.459,9.459,0,0,1-3.872,7.614A9.354,9.354,0,0,1-682.791,202.627Z" transform="translate(683.675 -192.325)" fill="#757575"/>
          </g>
        </g>
      </g>
      <g id="IC-HongMat" transform="translate(732.2 206)" clip-path="url(#clip-path-2)">
        <g id="Group_46404" data-name="Group 46404" transform="translate(21.283 3.748)">
          <g id="ic_Alert-3" data-name="ic_Alert" transform="translate(35.312 0)" opacity="0">
            <path id="Path_96390" data-name="Path 96390" d="M30.57,0A30.57,30.57,0,1,1,0,30.57,30.57,30.57,0,0,1,30.57,0Z" transform="translate(0 0)" fill="#ebfff4"/>
          </g>
          <g id="Group_46403" data-name="Group 46403" transform="translate(0 28.157)">
            <path id="Rectangle_21891" data-name="Rectangle 21891" d="M1.792,0H73.465a1.792,1.792,0,0,1,1.792,1.792v0a3.584,3.584,0,0,1-3.584,3.584H3.584A3.584,3.584,0,0,1,0,1.792v0A1.792,1.792,0,0,1,1.792,0Z" transform="translate(0 41.74)" fill="#fff"/>
            <g id="Group_46402" data-name="Group 46402" transform="translate(0.995 0)">
              <g id="Group_46400" data-name="Group 46400" transform="translate(0)">
                <path id="Shape" d="M10.538-11.473h63.8v1.316a4.073,4.073,0,0,1-4.078,3.947H3.829A3.794,3.794,0,0,1,.079-10.157v-1.316H6.657V-36.439" transform="translate(-0.079 53.575)" fill="none" stroke="#757575" stroke-linecap="round" stroke-linejoin="round" stroke-width="1.5" fill-rule="evenodd"/>
                <path id="Shape-2" data-name="Shape" d="M69.759-19.579V-57.024c0-.472-.592-.859-1.316-.859H9.245c-.724,0-1.316.387-1.316.859v9.878" transform="translate(-1.417 57.883)" fill="none" stroke="#757575" stroke-linecap="round" stroke-linejoin="round" stroke-width="1.5" fill-rule="evenodd"/>
              </g>
              <path id="Path_96391" data-name="Path 96391" d="M60.328,231.065H56.314v-4.384h4.014Z" transform="translate(-43.241 -213.163)" fill="#ebfff4" stroke="#0fa655" stroke-linecap="round" stroke-linejoin="round" stroke-width="1.5" fill-rule="evenodd"/>
              <path id="Path_96392" data-name="Path 96392" d="M92.26,228H63.873" transform="translate(-40.802 -212.052)" fill="none" stroke="#0fa655" stroke-linecap="round" stroke-linejoin="round" stroke-width="1.5" fill-rule="evenodd"/>
              <path id="Path_96393" data-name="Path 96393" d="M67.06,228H63.873" transform="translate(-6.071 -212.053)" fill="none" stroke="#b9bec5" stroke-linecap="round" stroke-linejoin="round" stroke-width="2" fill-rule="evenodd" opacity="0"/>
              <path id="Path_96394" data-name="Path 96394" d="M60.328,231.065H56.314v-4.384h4.014Z" transform="translate(-43.241 -196.045)" fill="#ebfff4" stroke="#0fa655" stroke-linecap="round" stroke-linejoin="round" stroke-width="1.5" fill-rule="evenodd"/>
              <path id="Path_96395" data-name="Path 96395" d="M92.26,228H63.873" transform="translate(-40.802 -194.923)" fill="none" stroke="#0fa655" stroke-linecap="round" stroke-linejoin="round" stroke-width="1.5" fill-rule="evenodd"/>
              <path id="Path_96396" data-name="Path 96396" d="M67.06,228H63.873" transform="translate(-6.071 -194.924)" fill="none" stroke="#0fa655" stroke-linecap="round" stroke-linejoin="round" stroke-width="2" fill-rule="evenodd"/>
              <path id="Path_96397" data-name="Path 96397" d="M60.328,223.529H56.314v-4.383h4.014Z" transform="translate(-43.241 -197.069)" fill="#ebfff4" stroke="#0fa655" stroke-linecap="round" stroke-linejoin="round" stroke-width="1.5" fill-rule="evenodd"/>
              <path id="Path_96398" data-name="Path 96398" d="M92.26,228H63.873" transform="translate(-40.802 -203.332)" fill="none" stroke="#0fa655" stroke-linecap="round" stroke-linejoin="round" stroke-width="1.5" fill-rule="evenodd"/>
              <path id="Path_96399" data-name="Path 96399" d="M67.06,228H63.873" transform="translate(-6.071 -203.332)" fill="none" stroke="#0fa655" stroke-linecap="round" stroke-linejoin="round" stroke-width="2" fill-rule="evenodd"/>
              <g id="Group_46401" data-name="Group 46401" transform="translate(13.877 6.129)">
                <path id="Path_96400" data-name="Path 96400" d="M48,448h1.8v1.8H48Zm0,0" transform="translate(-9.069 -448)" fill="#0fa655"/>
                <path id="Path_96401" data-name="Path 96401" d="M80,448h1.8v1.8H80Zm0,0" transform="translate(-37.465 -448)" fill="#0fa655"/>
                <path id="Path_96402" data-name="Path 96402" d="M112,448h1.8v1.8H112Zm0,0" transform="translate(-65.861 -448)" fill="#0fa655"/>
                <path id="Path_96403" data-name="Path 96403" d="M.894,3.575a.894.894,0,0,0,.894-.894V.894A.894.894,0,1,0,0,.894V2.681A.894.894,0,0,0,.894,3.575Z" transform="translate(0 1.927) rotate(-90)" fill="#0fa655"/>
                <path id="Path_96404" data-name="Path 96404" d="M.894,7.67a.894.894,0,0,0,.894-.894V.894A.894.894,0,1,0,0,.894V6.776A.894.894,0,0,0,.894,7.67Z" transform="translate(5.363 1.927) rotate(-90)" fill="#0fa655"/>
              </g>
            </g>
          </g>
          <path id="Path_96405" data-name="Path 96405" d="M13.439,0A13.439,13.439,0,1,1,0,13.439,13.439,13.439,0,0,1,13.439,0Z" transform="translate(52.411 17.885)" fill="#ebfff4"/>
          <g id="Path_96406" data-name="Path 96406" transform="translate(55.585 20.518)" fill="#0fa655">
            <path d="M 10.33599662780762 20.86161994934082 C 5.050256729125977 20.86161994934082 0.7499966025352478 16.35059928894043 0.7499966025352478 10.80580997467041 C 0.7499966025352478 5.261020183563232 5.050256729125977 0.75 10.33599662780762 0.75 C 15.62173652648926 0.75 19.9219970703125 5.261020183563232 19.9219970703125 10.80580997467041 C 19.9219970703125 16.35059928894043 15.62173652648926 20.86161994934082 10.33599662780762 20.86161994934082 Z" stroke="none"/>
            <path d="M 10.33599662780762 1.5 C 5.46380615234375 1.5 1.499996185302734 5.674570083618164 1.499996185302734 10.80580997467041 C 1.499996185302734 15.93704986572266 5.46380615234375 20.11161994934082 10.33599662780762 20.11161994934082 C 15.20818710327148 20.11161994934082 19.1719970703125 15.93704986572266 19.1719970703125 10.80580997467041 C 19.1719970703125 5.674570083618164 15.20818710327148 1.5 10.33599662780762 1.5 M 10.33599662780762 0 C 16.0444164276123 0 20.6719970703125 4.837919235229492 20.6719970703125 10.80580997467041 C 20.6719970703125 16.77368927001953 16.0444164276123 21.61161994934082 10.33599662780762 21.61161994934082 C 4.627586364746094 21.61161994934082 -3.814697265625e-06 16.77368927001953 -3.814697265625e-06 10.80580997467041 C -3.814697265625e-06 4.837919235229492 4.627586364746094 0 10.33599662780762 0 Z" stroke="none" fill="#0fa655"/>
          </g>
          <path id="Path_96407" data-name="Path 96407" d="M0,0V10.019" transform="translate(60.785 31.291) rotate(-90)" fill="none" stroke="#fff" stroke-linecap="round" stroke-width="1.5"/>
          <path id="Path_96408" data-name="Path 96408" d="M0,0C.185.277,3.893,3.893,3.893,3.893L7.786,0" transform="translate(67.262 35.185) rotate(-90)" fill="none" stroke="#fff" stroke-linecap="round" stroke-linejoin="round" stroke-width="1.5"/>
        </g>
      </g>
      <g id="IC-HongMat-2" data-name="IC-HongMat" transform="translate(732.2 442.095)" clip-path="url(#clip-path-3)">
        <g id="Group_46409" data-name="Group 46409" transform="translate(21.283 10.563)">
          <g id="ic_Alert-4" data-name="ic_Alert" transform="translate(37.369 0)" opacity="0">
            <path id="Path_96409" data-name="Path 96409" d="M26.878,0A26.878,26.878,0,1,1,0,26.878,26.878,26.878,0,0,1,26.878,0Z" fill="#ebfff4"/>
          </g>
          <g id="Group_46408" data-name="Group 46408" transform="translate(0 21.694)">
            <path id="Rectangle_21893" data-name="Rectangle 21893" d="M1.792,0H73.465a1.792,1.792,0,0,1,1.792,1.792v0a3.584,3.584,0,0,1-3.584,3.584H3.584A3.584,3.584,0,0,1,0,1.792v0A1.792,1.792,0,0,1,1.792,0Z" transform="translate(0 41.74)" fill="#fff"/>
            <g id="Group_46407" data-name="Group 46407" transform="translate(0.995 0)">
              <g id="Group_46405" data-name="Group 46405" transform="translate(0)">
                <path id="Shape-3" data-name="Shape" d="M10.538-11.473h63.8v1.316a4.073,4.073,0,0,1-4.078,3.947H3.829A3.794,3.794,0,0,1,.079-10.157v-1.316H6.657V-36.439" transform="translate(-0.079 53.575)" fill="none" stroke="#757575" stroke-linecap="round" stroke-linejoin="round" stroke-width="1.5" fill-rule="evenodd"/>
                <path id="Shape-4" data-name="Shape" d="M69.759-19.579V-57.024c0-.472-.592-.859-1.316-.859H9.245c-.724,0-1.316.387-1.316.859v9.878" transform="translate(-1.417 57.883)" fill="none" stroke="#757575" stroke-linecap="round" stroke-linejoin="round" stroke-width="1.5" fill-rule="evenodd"/>
              </g>
              <path id="Path_96410" data-name="Path 96410" d="M60.328,231.065H56.314v-4.384h4.014Z" transform="translate(-43.241 -213.163)" fill="#ebfff4" stroke="#0fa655" stroke-linecap="round" stroke-linejoin="round" stroke-width="1.5" fill-rule="evenodd"/>
              <path id="Path_96411" data-name="Path 96411" d="M92.26,228H63.873" transform="translate(-40.802 -212.052)" fill="none" stroke="#0fa655" stroke-linecap="round" stroke-linejoin="round" stroke-width="1.5" fill-rule="evenodd"/>
              <path id="Path_96412" data-name="Path 96412" d="M67.06,228H63.873" transform="translate(-6.071 -212.053)" fill="none" stroke="#b9bec5" stroke-linecap="round" stroke-linejoin="round" stroke-width="2" fill-rule="evenodd" opacity="0"/>
              <path id="Path_96413" data-name="Path 96413" d="M60.328,231.065H56.314v-4.384h4.014Z" transform="translate(-43.241 -196.045)" fill="#ebfff4" stroke="#0fa655" stroke-linecap="round" stroke-linejoin="round" stroke-width="1.5" fill-rule="evenodd"/>
              <path id="Path_96414" data-name="Path 96414" d="M92.26,228H63.873" transform="translate(-40.802 -194.923)" fill="none" stroke="#0fa655" stroke-linecap="round" stroke-linejoin="round" stroke-width="1.5" fill-rule="evenodd"/>
              <path id="Path_96415" data-name="Path 96415" d="M67.06,228H63.873" transform="translate(-6.071 -194.924)" fill="none" stroke="#0fa655" stroke-linecap="round" stroke-linejoin="round" stroke-width="2" fill-rule="evenodd"/>
              <path id="Path_96416" data-name="Path 96416" d="M60.328,223.529H56.314v-4.383h4.014Z" transform="translate(-43.241 -197.069)" fill="#ebfff4" stroke="#0fa655" stroke-linecap="round" stroke-linejoin="round" stroke-width="1.5" fill-rule="evenodd"/>
              <path id="Path_96417" data-name="Path 96417" d="M92.26,228H63.873" transform="translate(-40.802 -203.332)" fill="none" stroke="#0fa655" stroke-linecap="round" stroke-linejoin="round" stroke-width="1.5" fill-rule="evenodd"/>
              <path id="Path_96418" data-name="Path 96418" d="M67.06,228H63.873" transform="translate(-6.071 -203.332)" fill="none" stroke="#0fa655" stroke-linecap="round" stroke-linejoin="round" stroke-width="2" fill-rule="evenodd"/>
              <g id="Group_46406" data-name="Group 46406" transform="translate(13.877 6.129)">
                <path id="Path_96419" data-name="Path 96419" d="M48,448h1.8v1.8H48Zm0,0" transform="translate(-9.069 -448)" fill="#0fa655"/>
                <path id="Path_96420" data-name="Path 96420" d="M80,448h1.8v1.8H80Zm0,0" transform="translate(-37.465 -448)" fill="#0fa655"/>
                <path id="Path_96421" data-name="Path 96421" d="M112,448h1.8v1.8H112Zm0,0" transform="translate(-65.861 -448)" fill="#0fa655"/>
                <path id="Path_96422" data-name="Path 96422" d="M.894,3.575a.894.894,0,0,0,.894-.894V.894A.894.894,0,1,0,0,.894V2.681A.894.894,0,0,0,.894,3.575Z" transform="translate(0 1.927) rotate(-90)" fill="#0fa655"/>
                <path id="Path_96423" data-name="Path 96423" d="M.894,7.67a.894.894,0,0,0,.894-.894V.894A.894.894,0,1,0,0,.894V6.776A.894.894,0,0,0,.894,7.67Z" transform="translate(5.363 1.927) rotate(-90)" fill="#0fa655"/>
              </g>
            </g>
          </g>
          <path id="Path_96424" data-name="Path 96424" d="M13.439,0A13.439,13.439,0,1,1,0,13.439,13.439,13.439,0,0,1,13.439,0Z" transform="translate(52.411 11.423)" fill="#ebfff4"/>
          <g id="Path_96425" data-name="Path 96425" transform="translate(55.585 14.056)" fill="#0fa655">
            <path d="M 10.33599662780762 20.86161994934082 C 5.050256729125977 20.86161994934082 0.7499966025352478 16.35059928894043 0.7499966025352478 10.80580997467041 C 0.7499966025352478 5.261020183563232 5.050256729125977 0.75 10.33599662780762 0.75 C 15.62173652648926 0.75 19.9219970703125 5.261020183563232 19.9219970703125 10.80580997467041 C 19.9219970703125 16.35059928894043 15.62173652648926 20.86161994934082 10.33599662780762 20.86161994934082 Z" stroke="none"/>
            <path d="M 10.33599662780762 1.5 C 5.46380615234375 1.5 1.499996185302734 5.674570083618164 1.499996185302734 10.80580997467041 C 1.499996185302734 15.93704986572266 5.46380615234375 20.11161994934082 10.33599662780762 20.11161994934082 C 15.20818710327148 20.11161994934082 19.1719970703125 15.93704986572266 19.1719970703125 10.80580997467041 C 19.1719970703125 5.674570083618164 15.20818710327148 1.5 10.33599662780762 1.5 M 10.33599662780762 0 C 16.0444164276123 0 20.6719970703125 4.837919235229492 20.6719970703125 10.80580997467041 C 20.6719970703125 16.77368927001953 16.0444164276123 21.61161994934082 10.33599662780762 21.61161994934082 C 4.627586364746094 21.61161994934082 -3.814697265625e-06 16.77368927001953 -3.814697265625e-06 10.80580997467041 C -3.814697265625e-06 4.837919235229492 4.627586364746094 0 10.33599662780762 0 Z" stroke="none" fill="#0fa655"/>
          </g>
          <path id="Path_96426" data-name="Path 96426" d="M0,0V9.679" transform="translate(60.971 25.107) rotate(-90)" fill="none" stroke="#fff" stroke-linecap="round" stroke-width="1.5"/>
        </g>
      </g>
      <g id="Group_46410" data-name="Group 46410" transform="translate(263.355 213.577)">
        <g id="ic_Alert-5" data-name="ic_Alert" transform="translate(0 0)" opacity="0">
          <path id="Path_95690-3" data-name="Path 95690" d="M36.748,0A36.748,36.748,0,1,1,0,36.748,36.748,36.748,0,0,1,36.748,0Z" transform="translate(0 0)" fill="#eafaf1"/>
        </g>
        <g id="Group_45677-2" data-name="Group 45677" transform="translate(41.148 16.866)">
          <path id="Path_95654" data-name="Path 95654" d="M0,.088S10.511-1.273,13.219,6.694,6.982,21.843,6.982,21.843" transform="translate(0 13.73) rotate(-90)" fill="none" stroke="#0fa655" stroke-linecap="round" stroke-width="1.5"/>
          <path id="Path_95655" data-name="Path 95655" d="M0,0C.193.288,4.053,4.053,4.053,4.053L8.107,0" transform="translate(16.738 7.032) rotate(-42)" fill="none" stroke="#0fa655" stroke-linecap="round" stroke-linejoin="round" stroke-width="1.5"/>
          <g id="Group_45672" data-name="Group 45672" transform="translate(20.708 11.163)">
            <g id="Group_45665" data-name="Group 45665" transform="translate(0)">
              <path id="Shape-5" data-name="Shape" d="M9.85-14.014H69.459v1.229A3.805,3.805,0,0,1,65.649-9.1H3.582a3.544,3.544,0,0,1-3.5-3.687v-1.229H6.225V-40.439" transform="translate(-0.079 53.348)" fill="none" stroke="#757575" stroke-linecap="round" stroke-linejoin="round" stroke-width="1.5" fill-rule="evenodd"/>
              <path id="Shape-6" data-name="Shape" d="M65.694-22.1V-57.08c0-.441-.553-.8-1.229-.8H9.158c-.676,0-1.229.361-1.229.8v9.229" transform="translate(-1.845 57.883)" fill="none" stroke="#757575" stroke-linecap="round" stroke-linejoin="round" stroke-width="1.5" fill-rule="evenodd"/>
            </g>
            <g id="Group_45666" data-name="Group 45666" transform="translate(12.325 24.801)">
              <path id="Path_95665" data-name="Path 95665" d="M59.137,222.229H56.314v-3.083h2.823Z" transform="translate(-56.314 -218.276)" fill="#0fa655" fill-rule="evenodd"/>
              <path id="Path_95666" data-name="Path 95666" d="M59.137,229.764H56.314v-3.083h2.823Z" transform="translate(-56.314 -219.689)" fill="#0fa655" fill-rule="evenodd"/>
              <path id="Path_95667" data-name="Path 95667" d="M73.532,228H63.873" transform="translate(-56.83 -219.586)" fill="none" stroke="#757575" stroke-linecap="round" stroke-linejoin="round" stroke-width="1.5" fill-rule="evenodd"/>
              <path id="Path_95674" data-name="Path 95674" d="M73.532,228H63.873" transform="translate(-39.692 -219.586)" fill="none" stroke="#757575" stroke-linecap="round" stroke-linejoin="round" stroke-width="1.5" fill-rule="evenodd"/>
              <path id="Path_95669" data-name="Path 95669" d="M66.85,228H63.873" transform="translate(-24.224 -219.586)" fill="none" stroke="#0fa655" stroke-linecap="round" stroke-linejoin="round" stroke-width="1.5" fill-rule="evenodd"/>
              <path id="Path_95670" data-name="Path 95670" d="M73.532,228H63.873" transform="translate(-56.83 -225.561)" fill="none" stroke="#757575" stroke-linecap="round" stroke-linejoin="round" stroke-width="1.5" fill-rule="evenodd"/>
              <path id="Path_95673" data-name="Path 95673" d="M73.532,228H63.873" transform="translate(-39.692 -225.561)" fill="none" stroke="#757575" stroke-linecap="round" stroke-linejoin="round" stroke-width="1.5" fill-rule="evenodd"/>
              <path id="Path_95672" data-name="Path 95672" d="M66.85,228H63.873" transform="translate(-24.224 -225.561)" fill="none" stroke="#0fa655" stroke-linecap="round" stroke-linejoin="round" stroke-width="1.5" fill-rule="evenodd"/>
              <line id="Line_6602" data-name="Line 6602" y2="10.908" transform="translate(20.675)" fill="none" stroke="#b9bec5" stroke-width="1" opacity="0.45"/>
              <line id="Line_6603" data-name="Line 6603" y2="10.908" transform="translate(36.936)" fill="none" stroke="#b9bec5" stroke-width="1" opacity="0.45"/>
            </g>
            <g id="Group_46248" data-name="Group 46248" transform="translate(12.325 12.338)">
              <path id="Path_95665-2" data-name="Path 95665" d="M59.137,222.229H56.314v-3.083h2.823Z" transform="translate(-56.314 -218.276)" fill="#0fa655" fill-rule="evenodd"/>
              <path id="Path_95666-2" data-name="Path 95666" d="M59.137,229.764H56.314v-3.083h2.823Z" transform="translate(-56.314 -219.689)" fill="#0fa655" fill-rule="evenodd"/>
              <path id="Path_95667-2" data-name="Path 95667" d="M73.532,228H63.873" transform="translate(-56.83 -219.586)" fill="none" stroke="#757575" stroke-linecap="round" stroke-linejoin="round" stroke-width="1.5" fill-rule="evenodd"/>
              <path id="Path_95674-2" data-name="Path 95674" d="M73.532,228H63.873" transform="translate(-39.692 -219.586)" fill="none" stroke="#757575" stroke-linecap="round" stroke-linejoin="round" stroke-width="1.5" fill-rule="evenodd"/>
              <path id="Path_95669-2" data-name="Path 95669" d="M66.85,228H63.873" transform="translate(-24.224 -219.586)" fill="none" stroke="#0fa655" stroke-linecap="round" stroke-linejoin="round" stroke-width="1.5" fill-rule="evenodd"/>
              <path id="Path_95670-2" data-name="Path 95670" d="M73.532,228H63.873" transform="translate(-56.83 -225.561)" fill="none" stroke="#757575" stroke-linecap="round" stroke-linejoin="round" stroke-width="1.5" fill-rule="evenodd"/>
              <path id="Path_95673-2" data-name="Path 95673" d="M73.532,228H63.873" transform="translate(-39.692 -225.561)" fill="none" stroke="#757575" stroke-linecap="round" stroke-linejoin="round" stroke-width="1.5" fill-rule="evenodd"/>
              <path id="Path_95672-2" data-name="Path 95672" d="M66.85,228H63.873" transform="translate(-24.224 -225.561)" fill="none" stroke="#0fa655" stroke-linecap="round" stroke-linejoin="round" stroke-width="1.5" fill-rule="evenodd"/>
              <line id="Line_6602-2" data-name="Line 6602" y2="10.908" transform="translate(20.675)" fill="none" stroke="#b9bec5" stroke-width="1" opacity="0.45"/>
              <line id="Line_6603-2" data-name="Line 6603" y2="10.908" transform="translate(36.936)" fill="none" stroke="#b9bec5" stroke-width="1" opacity="0.45"/>
            </g>
            <path id="Path_95675" data-name="Path 95675" d="M84.794,206.593H56.314v-2.519h28.48Z" transform="translate(-36.535 -199.896)" fill="#0fa655" fill-rule="evenodd"/>
          </g>
        </g>
        <g id="Group_46342" data-name="Group 46342" transform="translate(7.184 25.047)">
          <path id="Path_59" data-name="Path 59" d="M1461.1,1294.958l-24.871.158-9.194-31.207-7.786-1.158" transform="translate(-1419.247 -1262.751)" fill="none" stroke="#0fa655" stroke-linecap="round" stroke-miterlimit="10" stroke-width="1.5"/>
          <path id="Path_60" data-name="Path 60" d="M1433.1,1277.611h35l-5.389,15h-25" transform="translate(-1419.44 -1265.928)" fill="#0fa655" stroke="#0fa655" stroke-linecap="round" stroke-linejoin="round" stroke-width="1.5"/>
          <ellipse id="Ellipse_5" data-name="Ellipse 5" cx="2.381" cy="2.368" rx="2.381" ry="2.368" transform="translate(20.946 34.314)" fill="#0fa655"/>
          <ellipse id="Ellipse_6" data-name="Ellipse 6" cx="2.381" cy="2.368" rx="2.381" ry="2.368" transform="translate(35.234 34.314)" fill="#0fa655"/>
          <path id="Path_96324" data-name="Path 96324" d="M2.1.124,26.642.009" transform="translate(17.372 18.655)" fill="none" stroke="#fff" stroke-linecap="round" stroke-width="1.5"/>
          <path id="Path_96327" data-name="Path 96327" d="M.287,1.8l1.588,9.945" transform="translate(22.215 12.323)" fill="none" stroke="#fff" stroke-linecap="round" stroke-width="1.5"/>
          <path id="Path_96326" data-name="Path 96326" d="M.018,1.817l.1,10.065" transform="translate(30.996 12.333)" fill="none" stroke="#fff" stroke-linecap="round" stroke-width="1.5"/>
          <path id="Path_96325" data-name="Path 96325" d="M2.46,1.879.376,12.289" transform="translate(38.007 12.13)" fill="none" stroke="#fff" stroke-linecap="round" stroke-width="1.5"/>
        </g>
      </g>
      <g id="IC-HongMat-3" data-name="IC-HongMat" transform="translate(276.615 448.473)" clip-path="url(#clip-path-4)">
        <g id="Group_46415" data-name="Group 46415" transform="translate(21.478 6.894)">
          <g id="ic_Alert-6" data-name="ic_Alert" transform="translate(39.428 0)" opacity="0">
            <path id="Path_96427" data-name="Path 96427" d="M26.877,0A26.877,26.877,0,1,1,0,26.877,26.877,26.877,0,0,1,26.877,0Z" transform="translate(0 0)" fill="#ebfff4"/>
          </g>
          <g id="Group_46414" data-name="Group 46414" transform="translate(0 22.988)">
            <path id="Rectangle_21895" data-name="Rectangle 21895" d="M1.792,0H73.465a1.792,1.792,0,0,1,1.792,1.792v0a3.584,3.584,0,0,1-3.584,3.584H3.584A3.584,3.584,0,0,1,0,1.792v0A1.792,1.792,0,0,1,1.792,0Z" transform="translate(0 41.74)" fill="#fff"/>
            <g id="Group_46413" data-name="Group 46413" transform="translate(0.995 0)">
              <g id="Group_46411" data-name="Group 46411" transform="translate(0)">
                <path id="Shape-7" data-name="Shape" d="M10.538-11.473h63.8v1.316a4.073,4.073,0,0,1-4.078,3.947H3.829A3.794,3.794,0,0,1,.079-10.157v-1.316H6.657V-36.439" transform="translate(-0.079 53.575)" fill="none" stroke="#757575" stroke-linecap="round" stroke-linejoin="round" stroke-width="1.5" fill-rule="evenodd"/>
                <path id="Shape-8" data-name="Shape" d="M69.759-19.579V-57.024c0-.472-.592-.859-1.316-.859H9.245c-.724,0-1.316.387-1.316.859v9.878" transform="translate(-1.417 57.883)" fill="none" stroke="#757575" stroke-linecap="round" stroke-linejoin="round" stroke-width="1.5" fill-rule="evenodd"/>
              </g>
              <path id="Path_96428" data-name="Path 96428" d="M60.328,231.065H56.314v-4.384h4.014Z" transform="translate(-43.241 -213.163)" fill="#ebfff4" stroke="#0fa655" stroke-linecap="round" stroke-linejoin="round" stroke-width="1.5" fill-rule="evenodd"/>
              <path id="Path_96429" data-name="Path 96429" d="M92.26,228H63.873" transform="translate(-40.802 -212.052)" fill="none" stroke="#0fa655" stroke-linecap="round" stroke-linejoin="round" stroke-width="1.5" fill-rule="evenodd"/>
              <path id="Path_96430" data-name="Path 96430" d="M67.06,228H63.873" transform="translate(-6.071 -212.053)" fill="none" stroke="#b9bec5" stroke-linecap="round" stroke-linejoin="round" stroke-width="2" fill-rule="evenodd" opacity="0"/>
              <path id="Path_96431" data-name="Path 96431" d="M60.328,231.065H56.314v-4.384h4.014Z" transform="translate(-43.241 -196.045)" fill="#ebfff4" stroke="#0fa655" stroke-linecap="round" stroke-linejoin="round" stroke-width="1.5" fill-rule="evenodd"/>
              <path id="Path_96432" data-name="Path 96432" d="M92.26,228H63.873" transform="translate(-40.802 -194.923)" fill="none" stroke="#0fa655" stroke-linecap="round" stroke-linejoin="round" stroke-width="1.5" fill-rule="evenodd"/>
              <path id="Path_96433" data-name="Path 96433" d="M67.06,228H63.873" transform="translate(-6.071 -194.924)" fill="none" stroke="#0fa655" stroke-linecap="round" stroke-linejoin="round" stroke-width="2" fill-rule="evenodd"/>
              <path id="Path_96434" data-name="Path 96434" d="M60.328,223.529H56.314v-4.383h4.014Z" transform="translate(-43.241 -197.069)" fill="#ebfff4" stroke="#0fa655" stroke-linecap="round" stroke-linejoin="round" stroke-width="1.5" fill-rule="evenodd"/>
              <path id="Path_96435" data-name="Path 96435" d="M92.26,228H63.873" transform="translate(-40.802 -203.332)" fill="none" stroke="#0fa655" stroke-linecap="round" stroke-linejoin="round" stroke-width="1.5" fill-rule="evenodd"/>
              <path id="Path_96436" data-name="Path 96436" d="M67.06,228H63.873" transform="translate(-6.071 -203.332)" fill="none" stroke="#0fa655" stroke-linecap="round" stroke-linejoin="round" stroke-width="2" fill-rule="evenodd"/>
              <g id="Group_46412" data-name="Group 46412" transform="translate(13.877 6.129)">
                <path id="Path_96437" data-name="Path 96437" d="M48,448h1.8v1.8H48Zm0,0" transform="translate(-9.069 -448)" fill="#0fa655"/>
                <path id="Path_96438" data-name="Path 96438" d="M80,448h1.8v1.8H80Zm0,0" transform="translate(-37.465 -448)" fill="#0fa655"/>
                <path id="Path_96439" data-name="Path 96439" d="M112,448h1.8v1.8H112Zm0,0" transform="translate(-65.861 -448)" fill="#0fa655"/>
                <path id="Path_96440" data-name="Path 96440" d="M.894,3.575a.894.894,0,0,0,.894-.894V.894A.894.894,0,1,0,0,.894V2.681A.894.894,0,0,0,.894,3.575Z" transform="translate(0 1.927) rotate(-90)" fill="#0fa655"/>
                <path id="Path_96441" data-name="Path 96441" d="M.894,7.67a.894.894,0,0,0,.894-.894V.894A.894.894,0,1,0,0,.894V6.776A.894.894,0,0,0,.894,7.67Z" transform="translate(5.363 1.927) rotate(-90)" fill="#0fa655"/>
              </g>
            </g>
          </g>
          <path id="Path_96442" data-name="Path 96442" d="M13.439,0A13.439,13.439,0,1,1,0,13.439,13.439,13.439,0,0,1,13.439,0Z" transform="translate(52.411 12.717)" fill="#ebfff4"/>
          <g id="Path_96443" data-name="Path 96443" transform="translate(55.585 12.717)" fill="#0fa655">
            <path d="M 11.59500694274902 23.49434471130371 C 5.615046977996826 23.49434471130371 0.7499969601631165 18.39281463623047 0.7499969601631165 12.12217426300049 C 0.7499969601631165 5.851534366607666 5.615046977996826 0.7500042915344238 11.59500694274902 0.7500042915344238 C 14.48548698425293 0.7500042915344238 17.20477676391602 1.928684234619141 19.25193786621094 4.068924427032471 C 21.30779647827148 6.218254089355469 22.44001770019531 9.078293800354004 22.44001770019531 12.12217426300049 C 22.44001770019531 15.16605472564697 21.30779647827148 18.02609443664551 19.25193786621094 20.17542457580566 C 17.20477676391602 22.31566429138184 14.48548698425293 23.49434471130371 11.59500694274902 23.49434471130371 Z" stroke="none"/>
            <path d="M 11.59500694274902 1.500003814697266 C 6.028596878051758 1.500003814697266 1.499996185302734 6.265094757080078 1.499996185302734 12.12217426300049 C 1.499996185302734 17.9792537689209 6.028596878051758 22.74434471130371 11.59500694274902 22.74434471130371 C 17.16141700744629 22.74434471130371 21.69001770019531 17.9792537689209 21.69001770019531 12.12217426300049 C 21.69001770019531 6.265094757080078 17.16141700744629 1.500003814697266 11.59500694274902 1.500003814697266 M 11.59500694274902 3.814697265625e-06 C 17.99875640869141 3.814697265625e-06 23.19001770019531 5.427284240722656 23.19001770019531 12.12217426300049 C 23.19001770019531 18.81706428527832 17.99875640869141 24.24434471130371 11.59500694274902 24.24434471130371 C 5.191257476806641 24.24434471130371 -3.814697265625e-06 18.81706428527832 -3.814697265625e-06 12.12217426300049 C -3.814697265625e-06 5.427284240722656 5.191257476806641 3.814697265625e-06 11.59500694274902 3.814697265625e-06 Z" stroke="none" fill="#0fa655"/>
          </g>
          <path id="Path_96444" data-name="Path 96444" d="M0,0V10.857" transform="translate(63.217 28.953) rotate(-135)" fill="none" stroke="#fff" stroke-linecap="round" stroke-width="1.5"/>
          <path id="Path_96445" data-name="Path 96445" d="M0,0V10.858" transform="translate(63.217 21.276) rotate(-45)" fill="none" stroke="#fff" stroke-linecap="round" stroke-width="1.5"/>
        </g>
      </g>
      <g id="Group_46416" data-name="Group 46416" transform="translate(144 334.238)">
        <g id="ic_Alert-7" data-name="ic_Alert" transform="translate(0 0)">
          <path id="Path_95690-4" data-name="Path 95690" d="M32.388,0A32.388,32.388,0,1,1,0,32.388,32.388,32.388,0,0,1,32.388,0Z" transform="translate(0 0)" fill="#eafaf1" opacity="0"/>
        </g>
        <g id="Group_45677-3" data-name="Group 45677" transform="translate(13.236 11.078)">
          <g id="Group_45662-2" data-name="Group 45662" transform="translate(0 8.412)">
            <path id="Path_95608-2" data-name="Path 95608" d="M74.827,217V200.582a1.045,1.045,0,0,0-.994-1.085H71.349m-2.981,0H48.994A1.045,1.045,0,0,0,48,200.582v25.177" transform="translate(-48 -199.497)" fill="none" stroke="#757575" stroke-linecap="round" stroke-linejoin="round" stroke-width="1.5" fill-rule="evenodd"/>
            <path id="Path_95609-2" data-name="Path 95609" d="M71.157,207.328H56.314v-3.254H71.157Z" transform="translate(-49.816 -199.821)" fill="#0fa655" fill-rule="evenodd"/>
            <path id="Path_95610-2" data-name="Path 95610" d="M58.885,221.954H56.314v-2.808h2.571Z" transform="translate(-51.883 -207.991)" fill="#0fa655" fill-rule="evenodd"/>
            <path id="Path_95611-2" data-name="Path 95611" d="M58.885,229.489H56.314v-2.808h2.571Z" transform="translate(-51.883 -210.657)" fill="#0fa655" fill-rule="evenodd"/>
            <path id="Path_95612-2" data-name="Path 95612" d="M58.885,229.489H56.314v-2.808h2.571Z" transform="translate(-51.883 -205.736)" fill="#0fa655" fill-rule="evenodd"/>
            <path id="Path_95619-2" data-name="Path 95619" d="M71.062,228H63.873" transform="translate(-54.121 -205.789)" fill="none" stroke="#757575" stroke-linecap="round" stroke-linejoin="round" stroke-width="1.5" fill-rule="evenodd"/>
            <path id="Path_95620-2" data-name="Path 95620" d="M75.707,228H63.873" transform="translate(-54.121 -210.681)" fill="none" stroke="#757575" stroke-linecap="round" stroke-linejoin="round" stroke-width="1.5" fill-rule="evenodd"/>
            <path id="Path_95621-2" data-name="Path 95621" d="M75.707,228H63.873" transform="translate(-54.121 -215.417)" fill="none" stroke="#757575" stroke-linecap="round" stroke-linejoin="round" stroke-width="1.5" fill-rule="evenodd"/>
          </g>
          <path id="Path_95654-2" data-name="Path 95654" d="M0,0V13.943" transform="translate(22.588 30.455) rotate(-90)" fill="none" stroke="#0fa655" stroke-linecap="round" stroke-width="1.5"/>
          <path id="Path_95655-2" data-name="Path 95655" d="M0,0C.176.263,3.692,3.691,3.692,3.691L7.383,0" transform="translate(33.173 34.147) rotate(-90)" fill="none" stroke="#0fa655" stroke-linecap="round" stroke-linejoin="round" stroke-width="1.5"/>
          <g id="Group_45672-2" data-name="Group 45672" transform="translate(36.338 0)">
            <g id="Group_45665-2" data-name="Group 45665" transform="translate(0 13.027)">
              <path id="Shape-9" data-name="Shape" d="M8.978-16.372h54.29v1.119a3.466,3.466,0,0,1-3.47,3.358H3.27a3.228,3.228,0,0,1-3.19-3.358v-1.119h5.6V-40.439" transform="translate(-0.079 52.196)" fill="none" stroke="#757575" stroke-linecap="round" stroke-linejoin="round" stroke-width="1.5" fill-rule="evenodd"/>
              <path id="Shape-10" data-name="Shape" d="M60.54-25.29V-57.152c0-.4-.5-.731-1.119-.731H9.049c-.616,0-1.119.329-1.119.731v8.405" transform="translate(-2.388 57.883)" fill="none" stroke="#757575" stroke-linecap="round" stroke-linejoin="round" stroke-width="1.5" fill-rule="evenodd"/>
            </g>
            <path id="Path_95665-3" data-name="Path 95665" d="M58.885,221.954H56.314v-2.808h2.571Z" transform="translate(-44.714 -193.297)" fill="#0fa655" fill-rule="evenodd"/>
            <path id="Path_95670-3" data-name="Path 95670" d="M83.946,228H63.873" transform="translate(-45.076 -200.766)" fill="none" stroke="#757575" stroke-linecap="round" stroke-linejoin="round" stroke-width="1.5" fill-rule="evenodd"/>
            <path id="Path_95672-3" data-name="Path 95672" d="M66.584,228H63.873" transform="translate(-15.614 -200.766)" fill="none" stroke="#0fa655" stroke-linecap="round" stroke-linejoin="round" stroke-width="1.5" fill-rule="evenodd"/>
            <path id="Path_95665-4" data-name="Path 95665" d="M58.885,221.954H56.314v-2.808h2.571Z" transform="translate(-44.714 -186.834)" fill="#0fa655" fill-rule="evenodd"/>
            <path id="Path_95670-4" data-name="Path 95670" d="M83.946,228H63.873" transform="translate(-45.076 -194.304)" fill="none" stroke="#757575" stroke-linecap="round" stroke-linejoin="round" stroke-width="1.5" fill-rule="evenodd"/>
            <path id="Path_95672-4" data-name="Path 95672" d="M66.584,228H63.873" transform="translate(-15.614 -194.304)" fill="none" stroke="#0fa655" stroke-linecap="round" stroke-linejoin="round" stroke-width="1.5" fill-rule="evenodd"/>
            <path id="Path_95665-5" data-name="Path 95665" d="M58.885,221.954H56.314v-2.808h2.571Z" transform="translate(-44.714 -180.371)" fill="#0fa655" fill-rule="evenodd"/>
            <path id="Path_95670-5" data-name="Path 95670" d="M83.946,228H63.873" transform="translate(-45.076 -187.841)" fill="none" stroke="#757575" stroke-linecap="round" stroke-linejoin="round" stroke-width="1.5" fill-rule="evenodd"/>
            <path id="Path_95672-5" data-name="Path 95672" d="M66.584,228H63.873" transform="translate(-15.614 -187.841)" fill="none" stroke="#0fa655" stroke-linecap="round" stroke-linejoin="round" stroke-width="1.5" fill-rule="evenodd"/>
            <line id="Line_6603-3" data-name="Line 6603" y2="17.741" transform="translate(43.942 25.187)" fill="none" stroke="#b9bec5" stroke-width="1" opacity="0.45"/>
            <path id="Path_96328" data-name="Path 96328" d="M12.176,0A12.176,12.176,0,1,1,0,12.176,12.176,12.176,0,0,1,12.176,0Z" transform="translate(43.942 2.02)" fill="#fff"/>
            <g id="Path_96329" data-name="Path 96329" transform="translate(46.602)" fill="#0fa655">
              <path d="M 11.11586380004883 22.49273490905762 C 5.400113582611084 22.49273490905762 0.7500038146972656 17.6158561706543 0.7500038146972656 11.62136554718018 C 0.7500038146972656 5.626875400543213 5.400113582611084 0.7500055432319641 11.11586380004883 0.7500055432319641 C 16.83161354064941 0.7500055432319641 21.48172378540039 5.626875400543213 21.48172378540039 11.62136554718018 C 21.48172378540039 17.6158561706543 16.83161354064941 22.49273490905762 11.11586380004883 22.49273490905762 Z" stroke="none"/>
              <path d="M 11.11586380004883 1.499996185302734 C 5.813663482666016 1.499996185302734 1.500003814697266 6.040426254272461 1.500003814697266 11.62136554718018 C 1.500003814697266 17.20230484008789 5.813663482666016 21.74272537231445 11.11586380004883 21.74272537231445 C 16.41806411743164 21.74272537231445 20.73172378540039 17.20230484008789 20.73172378540039 11.62136554718018 C 20.73172378540039 6.040426254272461 16.41806411743164 1.499996185302734 11.11586380004883 1.499996185302734 M 11.11586380004883 -3.814697265625e-06 C 17.25498390197754 -3.814697265625e-06 22.23172378540039 5.203065872192383 22.23172378540039 11.62136554718018 C 22.23172378540039 18.03966522216797 17.25498390197754 23.24272537231445 11.11586380004883 23.24272537231445 C 4.976743698120117 23.24272537231445 3.814697265625e-06 18.03966522216797 3.814697265625e-06 11.62136554718018 C 3.814697265625e-06 5.203065872192383 4.976743698120117 -3.814697265625e-06 11.11586380004883 -3.814697265625e-06 Z" stroke="none" fill="#0fa655"/>
            </g>
            <path id="Path_96330" data-name="Path 96330" d="M0,0V10.409" transform="translate(57.599 17.089) rotate(180)" fill="none" stroke="#fff" stroke-linecap="round" stroke-width="1.5"/>
            <path id="Path_96331" data-name="Path 96331" d="M0,0V10.409" transform="translate(52.395 11.885) rotate(-90)" fill="none" stroke="#fff" stroke-linecap="round" stroke-width="1.5"/>
            <g id="Group_46343" data-name="Group 46343" transform="translate(11.6 19.563)">
              <path id="Path_96140" data-name="Path 96140" d="M.748,2.993A.748.748,0,0,0,1.5,2.245V.748a.748.748,0,1,0-1.5,0v1.5A.748.748,0,0,0,.748,2.993Z" transform="translate(0 1.496) rotate(-90)" fill="#0fa655"/>
              <path id="Path_96141" data-name="Path 96141" d="M.748,10.113A.748.748,0,0,0,1.5,9.365V.748a.748.748,0,1,0-1.5,0V9.365A.748.748,0,0,0,.748,10.113Z" transform="translate(4.489 1.496) rotate(-90)" fill="#0fa655"/>
            </g>
          </g>
        </g>
      </g>
      <path id="Path_96446" data-name="Path 96446" d="M-832.5-10773h146.336v65.354" transform="translate(1253.558 11032.988)" fill="none" stroke="#78cc9f" stroke-width="1.5"/>
      <path id="Path_96447" data-name="Path 96447" d="M-834.792-10716.206H-680.56V-10773" transform="translate(1247.798 11221.509)" fill="none" stroke="#78cc9f" stroke-width="1.5"/>
      <path id="Path_96448" data-name="Path 96448" d="M0,0H196.062" transform="translate(306.925 385.961)" fill="#78cc9f" stroke="#78cc9f" stroke-width="1.5"/>
      <line id="Line_6719" data-name="Line 6719" x2="39.781" transform="translate(623.75 385.265)" fill="none" stroke="#78cc9f" stroke-width="1.5"/>
      <path id="Path_96449" data-name="Path 96449" d="M-444.485-10749H-497v193.074h48.8" transform="translate(1174.265 11037.729)" fill="none" stroke="#78cc9f" stroke-width="1.5"/>
      <path id="Path_96450" data-name="Path 96450" d="M48.726,0H0" transform="matrix(0.695, 0.719, -0.719, 0.695, 239.852, 457.069)" fill="#78cc9f" stroke="#78cc9f" stroke-width="1.5"/>
      <g id="Group_46417" data-name="Group 46417" transform="matrix(0.695, 0.719, -0.719, 0.695, 274.324, 477.767)">
        <path id="Polygon_1" data-name="Polygon 1" d="M9.612,1.1a1,1,0,0,1,1.613,0l8.445,11.516a1,1,0,0,1-.806,1.591H1.973a1,1,0,0,1-.806-1.591Z" transform="translate(14.207 0) rotate(90)" fill="#78cc9f"/>
      </g>
      <g id="Group_46418" data-name="Group 46418" transform="translate(211.438 279.879)">
        <path id="Path_96339" data-name="Path 96339" d="M48.726,0H0" transform="matrix(-0.695, 0.719, -0.719, -0.695, 44.34, 0)" fill="none" stroke="#78cc9f" stroke-width="1.5"/>
        <g id="Group_46362" data-name="Group 46362" transform="matrix(-0.695, 0.719, -0.719, -0.695, 24.859, 35.172)">
          <path id="Polygon_1-2" data-name="Polygon 1" d="M9.612,1.1a1,1,0,0,1,1.613,0l8.445,11.516a1,1,0,0,1-.806,1.591H1.973a1,1,0,0,1-.806-1.591Z" transform="translate(14.207 0) rotate(90)" fill="#78cc9f"/>
        </g>
      </g>
      <g id="Group_46419" data-name="Group 46419" transform="translate(498.251 375.542)">
        <path id="Polygon_1-3" data-name="Polygon 1" d="M9.186,1.139a1,1,0,0,1,1.627,0l8.057,11.28A1,1,0,0,1,18.057,14H1.943a1,1,0,0,1-.814-1.581Z" transform="translate(13.762 0.458) rotate(90)" fill="#78cc9f"/>
      </g>
      <g id="Group_46420" data-name="Group 46420" transform="translate(718.94 277.984)">
        <path id="Polygon_1-4" data-name="Polygon 1" d="M9.7,1.067a1,1,0,0,1,1.6,0L19.8,12.4A1,1,0,0,1,19,14H2a1,1,0,0,1-.8-1.6Z" transform="translate(14.074 0.016) rotate(90)" fill="#78cc9f"/>
      </g>
      <g id="Group_46421" data-name="Group 46421" transform="translate(718.94 471.205)">
        <path id="Polygon_1-5" data-name="Polygon 1" d="M9.7,1.067a1,1,0,0,1,1.6,0L19.8,12.4A1,1,0,0,1,19,14H2a1,1,0,0,1-.8-1.6Z" transform="translate(14.074 -0.204) rotate(90)" fill="#78cc9f"/>
      </g>
      <g id="Group_46422" data-name="Group 46422" transform="translate(811.762 427.414) rotate(90)">
        <path id="Polygon_1-6" data-name="Polygon 1" d="M9.612,1.1a1,1,0,0,1,1.613,0l8.445,11.516a1,1,0,0,1-.806,1.591H1.973a1,1,0,0,1-.806-1.591Z" transform="translate(14.207 0) rotate(90)" fill="#78cc9f"/>
      </g>
      <g id="Group_46423" data-name="Group 46423" transform="translate(430.056 270.407) rotate(180)">
        <path id="Polygon_1-7" data-name="Polygon 1" d="M9.186,1.139a1,1,0,0,1,1.627,0l8.057,11.28A1,1,0,0,1,18.057,14H1.943a1,1,0,0,1-.814-1.581Z" transform="translate(14.042 0.407) rotate(90)" fill="#78cc9f"/>
      </g>
      <g id="Group_46424" data-name="Group 46424" transform="translate(556.82 458.892) rotate(-90)">
        <path id="Polygon_1-8" data-name="Polygon 1" d="M9.612,1.1a1,1,0,0,1,1.613,0l8.445,11.516a1,1,0,0,1-.806,1.591H1.973a1,1,0,0,1-.806-1.591Z" transform="translate(14.207 0) rotate(90)" fill="#78cc9f"/>
      </g>
      <line id="Line_6720" data-name="Line 6720" y2="98.505" transform="translate(800.869 332.224)" fill="none" stroke="#78cc9f" stroke-width="1.5"/>
    </g>
  </g>
</svg>
