<svg xmlns="http://www.w3.org/2000/svg" xmlns:xlink="http://www.w3.org/1999/xlink" width="24" height="24" viewBox="0 0 24 24">
  <defs>
    <clipPath id="clip-path">
      <rect id="Rectangle_21217" data-name="Rectangle 21217" width="24" height="24" transform="translate(294.5 401.6)" fill="#fff" stroke="#707070" stroke-width="1" opacity="0.31"/>
    </clipPath>
  </defs>
  <g id="ic-_Updates" data-name="ic- Updates" transform="translate(-294.5 -401.6)" clip-path="url(#clip-path)">
    <g id="Group_45048" data-name="Group 45048" transform="translate(-137.558 177.657)">
      <g id="_3178691" data-name="3178691" transform="translate(433 224.331)">
        <path id="Path_95248" data-name="Path 95248" d="M16.962,22.923a5.962,5.962,0,1,1,5.962-5.962A5.968,5.968,0,0,1,16.962,22.923Zm0-11.006a5.044,5.044,0,1,0,5.044,5.044A5.05,5.05,0,0,0,16.962,11.917Z" transform="translate(-0.911 -0.911)" fill="#0fa655" stroke="#0fa655" stroke-width="0.3"/>
        <g id="Group_44982" data-name="Group 44982" transform="translate(-0.5 0.1)">
          <path id="Path_95249" data-name="Path 95249" d="M16.433,19.586a.507.507,0,0,1-.344-.134l-1.946-1.834a.44.44,0,0,1,0-.648.508.508,0,0,1,.688,0l.8.757.775.731,1.807-1.579a.507.507,0,0,1,.687-.043.441.441,0,0,1,.046.648L16.8,19.43a.5.5,0,0,1-.35.156Z" transform="translate(0 -1.242)" fill="#0fa655" stroke="#0fa655" stroke-width="0.3"/>
          <line id="Line_6406" data-name="Line 6406" y2="4" transform="translate(16.5 13.5)" fill="none" stroke="#0fa655" stroke-linecap="round" stroke-width="1.2"/>
        </g>
        <line id="Line_6422" data-name="Line 6422" x2="18" transform="translate(0.558 1.841)" fill="none" stroke="#0fa655" stroke-linecap="round" stroke-width="1.3"/>
        <line id="Line_6423" data-name="Line 6423" x2="18" transform="translate(0.558 7.091)" fill="none" stroke="#0fa655" stroke-linecap="round" stroke-width="1.3"/>
        <path id="Path_95296" data-name="Path 95296" d="M0,0H6.491" transform="translate(0.558 12.341)" fill="none" stroke="#0fa655" stroke-linecap="round" stroke-width="1.3"/>
        <path id="Path_95297" data-name="Path 95297" d="M0,0H6.491" transform="translate(0.558 17.341)" fill="none" stroke="#0fa655" stroke-linecap="round" stroke-width="1.3"/>
      </g>
    </g>
  </g>
</svg>
