<svg xmlns="http://www.w3.org/2000/svg" xmlns:xlink="http://www.w3.org/1999/xlink" width="24" height="24" viewBox="0 0 24 24">
  <defs>
    <clipPath id="clip-path">
      <rect id="Rectangle_21574" data-name="Rectangle 21574" width="24" height="24" transform="translate(600.2 231.5)" fill="#fff" stroke="#707070" stroke-width="1" opacity="0.4"/>
    </clipPath>
  </defs>
  <g id="ic-_filter_number" data-name="ic- filter number" transform="translate(-600.2 -231.5)" clip-path="url(#clip-path)">
    <g id="Group_45642" data-name="Group 45642" transform="translate(0 -0.631)">
      <path id="Path_95637" data-name="Path 95637" d="M463.761,395.008a.966.966,0,0,0-.892-.6h-10.11a.856.856,0,0,0-.842.532.838.838,0,0,0,.184,1.016l3.792,3.8v3.7a.922.922,0,0,0,.255.647l2.019,2.016a.838.838,0,0,0,.628.287h.019a1,1,0,0,0,.346-.067.869.869,0,0,0,.556-.845v-5.739l3.781-3.79A.84.84,0,0,0,463.761,395.008Zm-.809.386-4.024,4.036V405a3.768,3.768,0,0,1,0,.64v.147l-.188-.211-2.027-2.024a.129.129,0,0,1-.033-.092v-4.033l-4.023-4.034-.006-.128-.014-.011a.092.092,0,0,1,.1-.055h10.153a.091.091,0,0,1,.086.057l.01.027A.091.091,0,0,1,462.952,395.395Z" transform="translate(151.178 -152.608)" fill="#3d3f4e" stroke="#3d3f4e" stroke-width="0.2"/>
      <g id="Group_45641" data-name="Group 45641" transform="translate(404 -1772)">
        <g id="ic_Checkbox_Active" transform="translate(205 2006.631)">
          <rect id="Rectangle_3" data-name="Rectangle 3" width="12.356" height="12.356" rx="6.178" transform="translate(0)" fill="#0997eb"/>
        </g>
      </g>
      <text id="_3" data-name="3" transform="translate(613 244.131)" fill="#fff" font-size="9" font-family="OpenSans-Semibold, Open Sans" font-weight="600"><tspan x="0" y="0">3</tspan></text>
    </g>
  </g>
</svg>
