<svg xmlns="http://www.w3.org/2000/svg" xmlns:xlink="http://www.w3.org/1999/xlink" width="40" height="40" viewBox="0 0 40 40">
  <defs>
    <clipPath id="clip-path">
      <rect id="Rectangle_20968" data-name="Rectangle 20968" width="40" height="40" transform="translate(904 424)" fill="#fff" stroke="#707070" stroke-width="1" opacity="0.43"/>
    </clipPath>
  </defs>
  <g id="ic-i" transform="translate(-904 -424)" clip-path="url(#clip-path)">
    <g id="ic_ToastMessage_Info" transform="translate(217.5 -5476)">
      <circle id="Ellipse_69" data-name="Ellipse 69" cx="14.817" cy="14.817" r="14.817" transform="translate(693.472 5907.366)" fill="#0997eb" opacity="0.2"/>
      <g id="Ellipse_68" data-name="Ellipse 68" transform="translate(690 5903)" fill="none" stroke="#0997eb" stroke-width="2">
        <circle cx="15.461" cy="15.461" r="15.461" stroke="none"/>
        <circle cx="15.461" cy="15.461" r="14.461" fill="none"/>
      </g>
      <g id="Group_26879" data-name="Group 26879" transform="translate(704.316 5911.053)">
        <path id="Path_59381" data-name="Path 59381" d="M1.806-1.343a1.063,1.063,0,0,1-.376-.876v-7.6a1.035,1.035,0,0,1,.376-.866,1.5,1.5,0,0,1,.956-.3,1.545,1.545,0,0,1,.966.3,1.023,1.023,0,0,1,.387.866v7.6a1.05,1.05,0,0,1-.387.876A3.1,3.1,0,0,1,1.806-1.343Z" transform="translate(-1.43 15.452)" fill="#0997eb"/>
        <circle id="Ellipse_75" data-name="Ellipse 75" cx="1.342" cy="1.342" r="1.342" fill="#0997eb"/>
      </g>
    </g>
  </g>
</svg>
