<svg xmlns="http://www.w3.org/2000/svg" xmlns:xlink="http://www.w3.org/1999/xlink" width="24" height="24" viewBox="0 0 24 24">
  <defs>
    <clipPath id="clip-path">
      <rect id="Rectangle_21624" data-name="Rectangle 21624" width="24" height="24" transform="translate(1136 342)" fill="#fff" stroke="#707070" stroke-width="1" opacity="0.31"/>
    </clipPath>
  </defs>
  <g id="ic-ThanhLy" transform="translate(-1136 -342)" clip-path="url(#clip-path)">
    <g id="Group_45776" data-name="Group 45776" transform="translate(-2299 11005.271)">
      <g id="Group_45109" data-name="Group 45109" transform="translate(-148 102.73)">
        <g id="XMLID_1_" transform="translate(3583 -10765)">
          <path id="Path_95311" data-name="Path 95311" d="M20.713,6.918,18.765,9a.324.324,0,0,1-.49,0,.378.378,0,0,1,0-.523l1.7-1.817L19.8,6.469a.339.339,0,0,0,.49,0l.252-.269.182.194a.387.387,0,0,1,.1.262.362.362,0,0,1-.105.262Z" transform="translate(-0.451 -0.475)" fill="#0fa655" stroke="#0fa655" stroke-width="0.6"/>
          <path id="Path_95312" data-name="Path 95312" d="M18.509,3.16l2.162,2.171L18.5,3.16Z" transform="translate(-1.334 -0.256)" fill="#0fa655" stroke="#0fa655" stroke-width="0.6"/>
          <path id="Path_95313" data-name="Path 95313" d="M19.349.726a2.523,2.523,0,0,1,3.479,0,2.453,2.453,0,0,1,0,3.479L21.279,5.755l-.649-.649,1.549-1.559a1.53,1.53,0,0,0,.445-1.086,1.546,1.546,0,0,0-.445-1.086,1.581,1.581,0,0,0-2.171,0L18.459,2.934h-.009L17.8,2.275Z" transform="translate(-1.283 -0.03)" fill="#0fa655" stroke="#0fa655" stroke-width="0.6"/>
          <path id="Path_95316" data-name="Path 95316" d="M18.413,3.109,20.584,5.28h.009l.649.649-.334.334a.471.471,0,0,1-.649,0l-2.83-2.83a.465.465,0,0,1,0-.649l.334-.334Z" transform="translate(-1.247 -0.205)" fill="#0fa655" stroke="#0fa655" stroke-width="0.6"/>
          <path id="Path_95318" data-name="Path 95318" d="M16.256,2.817a.466.466,0,0,1-.659.659l-.037-.046.649-.649Z" transform="translate(-1.122 -0.228)" fill="#0fa655" stroke="#0fa655" stroke-width="0.6"/>
          <path id="Path_95322" data-name="Path 95322" d="M9.106,18.309a.459.459,0,1,1,.649.649L7.733,20.981a.451.451,0,0,0-.019-.631l-.325-.325Z" transform="translate(-0.532 -1.339)" fill="#0fa655" stroke="#0fa655" stroke-width="0.6"/>
          <path id="Path_95323" data-name="Path 95323" d="M14.7,3.077a.947.947,0,0,0-1.327,0L8.438,8.022a.471.471,0,0,1-.334.139.45.45,0,0,1-.325-.139.459.459,0,0,1,0-.659l4.945-4.936a1.851,1.851,0,0,1,2.626,0l.288.288-.649.649Z" transform="translate(-0.55 -0.164)" fill="#0fa655" stroke="#0fa655" stroke-width="0.6"/>
          <path id="Path_95324" data-name="Path 95324" d="M7.731,21.22v.009a.334.334,0,0,1-.111.074A.436.436,0,0,0,7.731,21.22Z" transform="translate(-0.549 -1.559)" fill="#0fa655" stroke="#0fa655" stroke-width="0.6"/>
          <path id="Path_95325" data-name="Path 95325" d="M7.65,20.495a.451.451,0,0,1,.019.631c0,.009-.019.019-.019.019a.436.436,0,0,1-.111.084.048.048,0,0,1-.037.019.377.377,0,0,1-.176.037A.464.464,0,0,1,7,21.154l-.51-.51.575-.223.26-.251Z" transform="translate(-0.467 -1.483)" fill="#0fa655" stroke="#0fa655" stroke-width="0.6"/>
          <path id="Path_95326" data-name="Path 95326" d="M7.1,19.914l-.26.251-.575.223L3.32,17.446l.223-.575.26-.251Z" transform="translate(-0.238 -1.227)" fill="#0fa655" stroke="#0fa655" stroke-width="0.6"/>
          <path id="Path_95327" data-name="Path 95327" d="M2.76,16.9a.456.456,0,0,1-.093-.5.07.07,0,0,1,.019-.037.436.436,0,0,1,.084-.111s.009-.019.019-.019a.451.451,0,0,1,.631.019l.334.334-.26.251-.223.575Z" transform="translate(-0.188 -1.191)" fill="#0fa655" stroke="#0fa655" stroke-width="0.6"/>
          <path id="Path_95328" data-name="Path 95328" d="M16.151,3.173,3.765,15.568l-.334-.334a.451.451,0,0,0-.631-.019L14.639,3.377l.037.046a.466.466,0,0,0,.659-.659l-.046-.037.538-.538a.435.435,0,0,1,.325-.139.471.471,0,0,1,.334.139l.232.232-.334.334a.465.465,0,0,0,0,.649Z" transform="translate(-0.201 -0.176)" fill="#0fa655" stroke="#0fa655" stroke-width="0.6"/>
          <path id="Path_95329" data-name="Path 95329" d="M2.774,16.26a.436.436,0,0,0-.084.111.774.774,0,0,1,.074-.111Z" transform="translate(-0.193 -1.201)" fill="#0fa655" stroke="#0fa655" stroke-width="0.6"/>
          <path id="Path_95330" data-name="Path 95330" d="M1.028,21.822l1.44-5.393a.009.009,0,0,1,.009-.009.456.456,0,0,0,.093.5l.51.51-.809,3.76,3.75-.819.51.51a.464.464,0,0,0,.325.13.377.377,0,0,0,.176-.037.009.009,0,0,1-.009.009l-5.393,1.44a.525.525,0,0,1-.167.028.435.435,0,0,1-.325-.139.461.461,0,0,1-.111-.492Z" transform="translate(0.001 -1.213)" fill="#0fa655" stroke="#0fa655" stroke-width="0.6"/>
        </g>
      </g>
      <path id="Path_95343" data-name="Path 95343" d="M17.031,23.062a6.046,6.046,0,0,1-5.957-5.085A6.305,6.305,0,0,1,11,17.031,6.043,6.043,0,0,1,17.031,11a6.305,6.305,0,0,1,.946.074,6.031,6.031,0,0,1-.946,11.988Zm0-11.134a5.1,5.1,0,1,0,5.1,5.1A5.112,5.112,0,0,0,17.031,11.928Z" transform="translate(3435.208 -10663.092)" fill="#0fa655" stroke="#0fa655" stroke-width="0.5"/>
      <line id="Line_6618" data-name="Line 6618" y2="4.976" transform="translate(3454.604 -10646.078) rotate(90)" fill="none" stroke="#0fa655" stroke-linecap="round" stroke-width="1.5"/>
      <path id="Path_95767" data-name="Path 95767" d="M0,2.5,2.625,0,5.251,2.5" transform="translate(3454.993 -10648.692) rotate(90)" fill="none" stroke="#0fa655" stroke-linecap="round" stroke-linejoin="round" stroke-width="1.3"/>
    </g>
  </g>
</svg>
