<svg xmlns="http://www.w3.org/2000/svg" xmlns:xlink="http://www.w3.org/1999/xlink" width="24" height="24" viewBox="0 0 24 24">
  <defs>
    <clipPath id="clip-path">
      <rect id="Rectangle_20867" data-name="Rectangle 20867" width="24" height="24" transform="translate(468.5 260.3)" fill="#fff" stroke="#707070" stroke-width="1" opacity="0.31"/>
    </clipPath>
  </defs>
  <g id="Mask_Group_7490" data-name="Mask Group 7490" transform="translate(-468.5 -260.3)" clip-path="url(#clip-path)">
    <g id="Group_26765" data-name="Group 26765" transform="translate(-744 182)">
      <g id="Group_26766" data-name="Group 26766" transform="translate(-4865 -3279)">
        <g id="Group_2607" transform="translate(6080.5 3360)">
          <path id="Path_2492" d="M19.082,9.88a.659.659,0,0,1-.682-.6h0a.673.673,0,0,1,.682-.682h0a.659.659,0,0,1,.682.6v.085A.827.827,0,0,1,19.082,9.88Z" transform="translate(-3.983 -1.264)" fill="#3d3f4e"/>
          <path id="Path_2493" d="M13.951,20.6H8.662A1.809,1.809,0,0,1,6.7,18.917V11.6h9.128v7.317A1.775,1.775,0,0,1,13.951,20.6ZM7.98,12.771v6.22a.628.628,0,0,0,.682.585h5.289a.633.633,0,0,0,.682-.585h0v-6.22Z" transform="translate(-2.264 -1.704)" fill="#3d3f4e"/>
          <path id="Path_2494" d="M15.828,6.313H6.7V1.621A1.678,1.678,0,0,1,8.321,0h5.972a1.678,1.678,0,0,1,1.621,1.621l-.085,4.692ZM7.98,5.033h6.569V1.621a.367.367,0,0,0-.341-.341H8.236a.367.367,0,0,0-.341.341L7.98,5.033Z" transform="translate(-2.264)" fill="#3d3f4e"/>
          <path id="Path_2495" d="M16.7,18.3" transform="translate(-3.733 -2.689)" fill="#3d3f4e" stroke="#fff" stroke-miterlimit="10" stroke-width="1.531"/>
          <path id="Path_2496" d="M17.367,16.237h-2.9v-1.28h2.9a.765.765,0,0,0,.768-.768V8.047a.765.765,0,0,0-.768-.768H3.547a.765.765,0,0,0-.768.768h0v6.227a.765.765,0,0,0,.768.768H6.618v1.194H3.547A2.076,2.076,0,0,1,1.5,14.19V8.047A2,2,0,0,1,3.462,6h13.99A2.076,2.076,0,0,1,19.5,8.047v6.227A2.138,2.138,0,0,1,17.367,16.237Z" transform="translate(-1.5 -0.882)" fill="#3d3f4e"/>
          <path id="Path_2497" d="M13.507,16.28H9.582A.673.673,0,0,1,8.9,15.6h0a.583.583,0,0,1,.6-.6h3.924a.673.673,0,0,1,.682.682h0a.579.579,0,0,1-.6.6Z" transform="translate(-2.587 -2.204)" fill="#3d3f4e"/>
          <path id="Path_2498" d="M12.242,19.28H9.682A.673.673,0,0,1,9,18.6H9a.583.583,0,0,1,.6-.6h2.559a.673.673,0,0,1,.682.682h0a.583.583,0,0,1-.6.6Z" transform="translate(-2.602 -2.645)" fill="#3d3f4e"/>
        </g>
      </g>
    </g>
  </g>
</svg>
