<svg xmlns="http://www.w3.org/2000/svg" xmlns:xlink="http://www.w3.org/1999/xlink" width="24" height="24" viewBox="0 0 24 24">
  <defs>
    <clipPath id="clip-path">
      <rect id="Rectangle_20866" data-name="Rectangle 20866" width="24" height="24" transform="translate(509 260)" fill="#fff" stroke="#707070" stroke-width="1"/>
    </clipPath>
  </defs>
  <g id="Mask_Group_7488" data-name="Mask Group 7488" transform="translate(-509 -260)" clip-path="url(#clip-path)">
    <g id="_806563" data-name="806563" transform="translate(511.501 263)">
      <g id="Group_43161" data-name="Group 43161" transform="translate(0.499)">
        <g id="Group_43160" data-name="Group 43160" transform="translate(0)">
          <path id="Path_71354" data-name="Path 71354" d="M6.83,299.816a.7.7,0,0,0-.636-.4H1.2a.7.7,0,0,0-.7.7v.7a.7.7,0,1,0,1.406,0h2.8L.659,305.752A.7.7,0,0,0,1.2,306.9H6.089a.7.7,0,0,0,.7-.7v-.7a.7.7,0,1,0-1.406,0h-2.7l4.049-4.933A.7.7,0,0,0,6.83,299.816Z" transform="translate(-0.499 -288.866)" fill="#3d3f4e" stroke="#3d3f4e" stroke-width="0.1"/>
          <path id="Path_71355" data-name="Path 71355" d="M368.485,16.99a.772.772,0,0,0,.7-.826V.826a.712.712,0,1,0-1.406,0V16.164A.772.772,0,0,0,368.485,16.99Z" transform="translate(-354.844)" fill="#3d3f4e" stroke="#3d3f4e" stroke-width="0.1"/>
          <path id="Path_71356" data-name="Path 71356" d="M273.464,384.957a.7.7,0,0,0-.994-.006l-2.662,2.629,0,0a.7.7,0,0,1-.994,0l-2.627-2.629a.7.7,0,1,0-.995.994l2.627,2.629a2.112,2.112,0,0,0,2.981,0l2.661-2.628A.7.7,0,0,0,273.464,384.957Z" transform="translate(-255.666 -371.195)" fill="#3d3f4e" stroke="#3d3f4e" stroke-width="0.1"/>
          <path id="Path_71357" data-name="Path 71357" d="M3.7,0A3.2,3.2,0,0,0,.5,3.2V6.785a.7.7,0,0,0,1.406,0V5.344H5.491V6.785a.7.7,0,0,0,1.406,0V3.2A3.2,3.2,0,0,0,3.7,0ZM5.491,3.938H1.905V3.2a1.793,1.793,0,1,1,3.586,0Z" transform="translate(-0.499)" fill="#3d3f4e" stroke="#3d3f4e" stroke-width="0.1"/>
        </g>
      </g>
    </g>
  </g>
</svg>
