<svg xmlns="http://www.w3.org/2000/svg" xmlns:xlink="http://www.w3.org/1999/xlink" width="152" height="152" viewBox="0 0 152 152">
  <defs>
    <clipPath id="clip-path">
      <rect id="Rectangle_21528" data-name="Rectangle 21528" width="152" height="152" transform="translate(768 32)" fill="#fff" stroke="#707070" stroke-width="1"/>
    </clipPath>
  </defs>
  <g id="Mask_Group_15934" data-name="Mask Group 15934" transform="translate(-768 -32)" clip-path="url(#clip-path)">
    <g id="Group_45010" data-name="Group 45010" transform="translate(768 32)">
      <rect id="Rectangle_4765" data-name="Rectangle 4765" width="152" height="151.884" transform="translate(0 0)" fill="#cdcdcd"/>
      <path id="Path_493" data-name="Path 493" d="M128.665,133.739c.081-8.286-19.089-13.552-19.089-13.552-.493-.151-1.024-.342-1.595-.493-1.712-.647-3.461-1.255-5.17-1.862-5.741-2.053-10.682-3.838-13.381-5.166a7.866,7.866,0,0,1-4.029-5.431,22.263,22.263,0,0,1,1.329-12.08,36.514,36.514,0,0,0,1.977-3.418A81.687,81.687,0,0,0,94.943,76.5a29.7,29.7,0,0,0,3.384-5.012,22.7,22.7,0,0,0,3.115-12.157c0-4.14-.114-7.863-.342-10.976a5.926,5.926,0,0,0-2.887-5.317c-.077-2.244-.191-4.445-.305-6.572A40.467,40.467,0,0,0,94.45,21.579,22.234,22.234,0,0,0,85.1,11.512Q78.656,7.869,66.814,7.866c-.081,0-.144.01-.222.01s-.144-.01-.225-.01q-11.859,0-18.283,3.646a22.234,22.234,0,0,0-9.353,10.067A40.334,40.334,0,0,0,35.273,36.47c-.114,2.127-.228,4.327-.306,6.572a5.926,5.926,0,0,0-2.887,5.317c-.228,3.113-.342,6.837-.342,10.976a22.7,22.7,0,0,0,3.115,12.157A29.7,29.7,0,0,0,38.238,76.5a81.688,81.688,0,0,0,6.234,15.233,36.516,36.516,0,0,0,1.977,3.418,22.263,22.263,0,0,1,1.329,12.08,7.866,7.866,0,0,1-4.029,5.431c-2.7,1.328-7.641,3.113-13.381,5.166-1.709.607-3.458,1.214-5.17,1.862-.571.151-1.1.342-1.595.493,0,0-19.169,5.267-19.092,13.552Z" transform="translate(10.58 18.261)" fill="#fff"/>
    </g>
  </g>
</svg>
