<svg xmlns="http://www.w3.org/2000/svg" xmlns:xlink="http://www.w3.org/1999/xlink" width="24" height="24" viewBox="0 0 24 24">
  <defs>
    <clipPath id="clip-path">
      <rect id="Rectangle_20949" data-name="Rectangle 20949" width="24" height="24" transform="translate(648 260)" fill="#fff" stroke="#707070" stroke-width="1"/>
    </clipPath>
  </defs>
  <g id="Mask_Group_7505" data-name="Mask Group 7505" transform="translate(-648 -260)" clip-path="url(#clip-path)">
    <g id="Layer_1" data-name="Layer 1" transform="translate(644.506 256.484)">
      <path id="Path_71347" data-name="Path 71347" d="M21.558,15.515a1.6,1.6,0,0,0,.659,1.281l1.134.825a.428.428,0,0,1,.078.539l-1.638,2.747a.334.334,0,0,1-.46.194l-1.241-.485a1.737,1.737,0,0,0-1.531.131,1.665,1.665,0,0,0-.785,1.184l-.184,1.276a.388.388,0,0,1-.422.306H13.882a.388.388,0,0,1-.422-.306l-.179-1.223a1.757,1.757,0,0,0-.829-1.252A1.675,1.675,0,0,0,11,20.606l-1.26.485q-.305.155-.46-.194L7.631,18.165a.366.366,0,0,1,.078-.539L8.847,17a1.645,1.645,0,0,0,.087-2.815l-1.3-.781a.428.428,0,0,1-.078-.539l1.638-2.737a.334.334,0,0,1,.46-.194l1.26.485a1.7,1.7,0,0,0,1.5-.131h.034a1.665,1.665,0,0,0,.78-1.188l.184-1.276a.388.388,0,0,1,.422-.306H17.09a.388.388,0,0,1,.422.306l.155,1.218a1.728,1.728,0,0,0,.824,1.262,1.646,1.646,0,0,0,1.454.121l1.231-.485q.3-.155.485.194l1.648,2.732a.366.366,0,0,1-.078.539l-1.085.825a1.6,1.6,0,0,0-.588,1.285Z" fill="none" stroke="#3d3f4e" stroke-linecap="round" stroke-linejoin="round" stroke-width="1.5"/>
      <path id="Path_71348" data-name="Path 71348" d="M19.114,23.048a2.683,2.683,0,0,0,1.938.786,2.745,2.745,0,0,0,1.972-.786,2.711,2.711,0,0,0,0-3.882,2.746,2.746,0,0,0-1.938-.786,2.683,2.683,0,0,0-1.938.786,2.8,2.8,0,0,0-.034,3.882Z" transform="translate(-5.595 -5.592)" fill="none" stroke="#3d3f4e" stroke-linecap="round" stroke-linejoin="round" stroke-width="1.5"/>
    </g>
  </g>
</svg>
